<svg width="252" height="160" viewBox="0 0 252 160" fill="none" xmlns="http://www.w3.org/2000/svg">
<path fill-rule="evenodd" clip-rule="evenodd" d="M7.77729 91.3708L1.43051 121.242L1.47506 121.257C1.27958 122.062 1.18024 122.874 1.18024 123.693C1.18024 143.093 56.9287 158.82 125.698 158.82C194.467 158.82 250.216 143.093 250.216 123.693C250.216 122.964 250.137 122.241 249.982 121.523L244.86 92.3994L244.734 92.2544C244.599 92.9959 244.421 93.7062 244.204 94.3867C240.208 111.745 188.898 125.477 126.188 125.477C60.8715 125.477 7.92196 110.58 7.92196 92.204C7.92196 91.998 7.92861 91.7925 7.94185 91.5874C7.8811 91.5139 7.8262 91.4417 7.77729 91.3708ZM8.22044 89.2979L8.21702 89.3012L8.1505 89.6143C8.17361 89.5093 8.19692 89.4038 8.22044 89.2979Z" fill="#5E6D84"/>
<path fill-rule="evenodd" clip-rule="evenodd" d="M0.0562353 122.031L7.19242 88.4447L7.27708 88.5674L9.03431 83.7318L8.7488 84.5175L8.61902 85.7326L8.26467 86.9406L8.61902 86.2951L9.32354 84.5175L8.8625 86.8484V88.4447V89.0614C8.95304 90.297 8.79457 90.0166 8.8625 90.3523V91.0346L9.03431 91.5874C9.0227 91.7672 9.10225 92.0234 9.10225 92.2039C9.10225 96.1904 11.9851 100.258 17.8696 104.173C23.7092 108.057 32.2371 111.601 42.8809 114.595C64.1522 120.58 93.6061 124.297 126.188 124.297C157.468 124.297 185.868 120.871 206.912 115.3C217.439 112.514 226.074 109.204 232.299 105.55C238.572 101.868 242.167 97.9737 243.053 94.1219L243.064 94.0741L243.079 94.0273C243.281 93.3963 243.447 92.7353 243.573 92.0424L243.864 90.3338V87.8258L245.966 91.8734L251.141 121.297C251.31 122.087 251.396 122.887 251.396 123.693C251.396 129.149 247.487 134.078 241.085 138.348C234.639 142.647 225.39 146.473 214.066 149.667C191.401 156.061 160.159 160 125.698 160C91.2368 160 59.9944 156.061 37.3302 149.667C26.0062 146.473 16.7566 142.647 10.3106 138.348C3.90884 134.078 0 129.149 0 123.693C0 123.142 0.0402154 122.595 0.119495 122.052L0.0562353 122.031ZM1.47509 121.257C1.27961 122.062 1.18026 122.874 1.18026 123.693C1.18026 143.093 56.9287 158.82 125.698 158.82C194.467 158.82 250.216 143.093 250.216 123.693C250.216 122.964 250.137 122.241 249.982 121.523L244.86 92.3993L244.734 92.2544C244.724 92.3122 244.713 92.3697 244.702 92.4271C244.693 92.4711 244.685 92.5149 244.676 92.5586C244.549 93.1907 244.391 93.7998 244.204 94.3867C244.169 94.5364 244.131 94.6858 244.09 94.8349C239.322 111.981 188.357 125.477 126.188 125.477C63.9235 125.477 12.8973 111.94 8.26467 94.7559C8.03759 93.9136 7.92198 93.0626 7.92198 92.2039C7.92198 91.998 7.92863 91.7925 7.94188 91.5874C7.88112 91.5139 7.82623 91.4417 7.77731 91.3708L1.43054 121.242L1.47509 121.257Z" fill="#341D1A"/>
<path d="M124.527 13.7428C137.235 13.6843 154.563 14.0802 170.757 15.4742C178.854 16.1713 186.674 17.1185 193.494 18.3844C200.307 19.6488 206.155 21.2371 210.287 23.2291C214.872 25.4394 219.075 29.6331 222.861 34.9342C226.652 40.2413 230.051 46.6963 233.016 53.4811C238.944 67.0507 243.155 81.9951 245.274 91.8512L245.295 91.9449L245.279 92.0387C245.136 92.9056 244.935 93.7329 244.684 94.5231C243.628 99.06 239.524 103.257 233.149 106.999C226.744 110.759 217.948 114.117 207.342 116.924C186.125 122.541 157.574 125.977 126.188 125.977C93.4971 125.977 63.883 122.249 42.4258 116.213C31.7007 113.195 22.9845 109.593 16.9385 105.572C10.9117 101.563 7.42194 97.0551 7.42194 92.2037C7.42194 92.0501 7.42762 91.8969 7.43463 91.7438C7.41088 91.7117 7.38446 91.6822 7.36237 91.65L7.24127 91.4733L7.28522 91.2643C9.34434 81.4085 13.4134 66.612 19.1514 53.1901C22.0205 46.479 25.3123 40.0972 28.9874 34.8453C32.658 29.5999 36.7375 25.4435 41.1944 23.2321C45.212 21.2387 50.8957 19.65 57.5157 18.3854C64.1436 17.1192 71.7428 16.1713 79.6104 15.4742C95.3445 14.0802 112.181 13.6843 124.527 13.7428ZM122.424 24.7438H122.419C111.839 24.6985 95.4249 25.3151 79.96 26.7028C72.2278 27.3966 64.7393 28.2826 58.3399 29.3737C51.9288 30.4667 46.6495 31.7591 43.3126 33.2526C36.8153 36.1606 32.967 43.7942 30.1905 52.9323C28.8086 57.4805 27.7046 62.3561 26.6651 67.1305C25.6273 71.897 24.6528 76.57 23.5333 80.6803L23.5137 80.7535L23.4727 80.817C22.6695 82.086 22.2667 83.3641 22.2667 84.649C22.2667 84.8897 22.2806 85.1296 22.3087 85.3688L22.3194 85.4557L22.3096 85.4938L22.3253 85.5114L22.3487 85.652C22.8715 88.842 25.9054 92.0014 31.2598 94.9479C36.5829 97.8771 44.0672 100.522 53.2247 102.746C71.5341 107.191 96.4399 109.929 123.894 109.929C151.35 109.929 176.258 107.191 194.567 102.745C203.725 100.521 211.209 97.8755 216.531 94.9459C221.885 91.999 224.918 88.8385 225.439 85.6481L225.462 85.5045L225.474 85.4899L225.467 85.4606L225.478 85.3727C225.506 85.1322 225.521 84.891 225.521 84.649C225.521 83.2171 225.452 78.0652 225.037 74.8326C224.301 69.0883 223.641 64.0351 221.886 57.5934C216.45 43.9348 205.324 36.2002 195.697 32.0143C189.784 29.4429 179.515 27.7148 167.934 26.5934C156.373 25.4741 143.57 24.9637 132.635 24.8004C128.984 24.7459 125.541 24.7308 122.424 24.7438Z" fill="#B8D2E4" stroke="#341D1A"/>
</svg>
