<svg width="252" height="160" viewBox="0 0 252 160" fill="none" xmlns="http://www.w3.org/2000/svg">
<path fill-rule="evenodd" clip-rule="evenodd" d="M7.77729 84.6677L1.43051 117.456L1.47506 117.473C1.27958 118.356 1.18024 119.248 1.18024 120.147C1.18024 141.442 56.9287 158.704 125.698 158.704C194.467 158.704 250.216 141.442 250.216 120.147C250.216 119.347 250.137 118.553 249.982 117.765L244.86 85.7967L244.734 85.6376C244.599 86.4515 244.421 87.2312 244.204 87.9782C240.208 107.032 188.898 122.105 126.188 122.105C60.8715 122.105 7.92196 105.753 7.92196 85.5822C7.92196 85.3561 7.92861 85.1306 7.94185 84.9055C7.8811 84.8248 7.8262 84.7455 7.77729 84.6677ZM8.22044 82.3923L8.21702 82.3959L8.1505 82.7396C8.17361 82.6244 8.19692 82.5086 8.22044 82.3923Z" fill="#5E6D84"/>
<path fill-rule="evenodd" clip-rule="evenodd" d="M0.0562353 118.323L7.19242 81.4558L7.27708 81.5905L9.03431 76.2825L8.7488 77.145L8.61902 78.4788L8.26467 79.8048L8.61902 79.0963L9.32354 77.145L8.8625 79.7036V81.4558V82.1327C8.95304 83.489 8.79457 83.1813 8.8625 83.5497V84.2987L9.03431 84.9055C9.0227 85.1028 9.10225 85.384 9.10225 85.5822C9.10225 89.958 11.9851 94.4233 17.8696 98.7198C23.7092 102.984 32.2371 106.874 42.8809 110.161C64.1522 116.73 93.6061 120.809 126.188 120.809C157.468 120.809 185.868 117.049 206.912 110.934C217.439 107.876 226.074 104.242 232.299 100.232C238.572 96.1901 242.167 91.9155 243.053 87.6875L243.064 87.635L243.079 87.5837C243.281 86.891 243.447 86.1654 243.573 85.4049L243.864 83.5295V80.7764L245.966 85.2193L251.141 117.517C251.31 118.384 251.396 119.262 251.396 120.147C251.396 126.136 247.487 131.546 241.085 136.233C234.639 140.952 225.39 145.152 214.066 148.658C191.401 155.676 160.159 160 125.698 160C91.2368 160 59.9944 155.676 37.3302 148.658C26.0062 145.152 16.7566 140.952 10.3106 136.233C3.90884 131.546 0 126.136 0 120.147C0 119.543 0.0402154 118.942 0.119495 118.346L0.0562353 118.323ZM1.47509 117.473C1.27961 118.356 1.18026 119.248 1.18026 120.147C1.18026 141.442 56.9287 158.704 125.698 158.704C194.467 158.704 250.216 141.442 250.216 120.147C250.216 119.347 250.137 118.553 249.982 117.765L244.86 85.7967L244.734 85.6376C244.724 85.701 244.713 85.7642 244.702 85.8272C244.693 85.8754 244.685 85.9235 244.676 85.9715C244.549 86.6653 244.391 87.3339 244.204 87.9781C244.169 88.1424 244.131 88.3064 244.09 88.4701C239.322 107.291 188.357 122.105 126.188 122.105C63.9235 122.105 12.8973 107.246 8.26467 88.3835C8.03759 87.4589 7.92198 86.5247 7.92198 85.5822C7.92198 85.3561 7.92863 85.1305 7.94188 84.9055C7.88112 84.8248 7.82623 84.7455 7.77731 84.6677L1.43054 117.456L1.47509 117.473Z" fill="#341D1A"/>
</svg>
