<svg width="252" height="161" viewBox="0 0 252 161" fill="none" xmlns="http://www.w3.org/2000/svg">
<path d="M124.328 0.503906C134.615 0.461898 148.635 0.750856 161.736 1.76465C174.812 2.77645 187.056 4.5151 193.733 7.40625C197.464 9.02201 200.898 12.1556 203.996 16.1221C207.099 20.0934 209.891 24.9331 212.328 30.0088C217.203 40.1597 220.686 51.3095 222.403 58.4844L222.46 58.7197L222.311 58.9102C222.296 58.929 222.278 58.9462 222.263 58.9648C222.363 59.3867 222.417 59.8126 222.417 60.2432C222.417 61.8986 221.664 63.4725 220.319 64.9414C218.977 66.4074 217.021 67.7977 214.544 69.1064C209.589 71.7245 202.453 74.0668 193.676 76.0283C176.114 79.9532 151.877 82.3769 125.122 82.377C98.3674 82.377 74.1294 79.9533 56.5675 76.0283C47.7909 74.0668 40.6541 71.7245 35.6993 69.1064C33.2225 67.7977 31.2663 66.4075 29.924 64.9414C28.579 63.4725 27.8263 61.8986 27.8263 60.2432C27.8263 59.3818 28.0316 58.5391 28.42 57.7207C30.189 50.4143 33.6117 39.4444 38.3429 29.5146C40.7138 24.5387 43.4194 19.8103 46.4191 15.9316C49.4149 12.0579 52.7297 8.99892 56.3282 7.4082C62.8717 4.5157 74.8695 2.77645 87.6788 1.76465C100.514 0.750778 114.25 0.461912 124.328 0.503906Z" fill="#F7405E" stroke="#341D1A"/>
<mask id="path-2-outside-1_1_589" maskUnits="userSpaceOnUse" x="21.3105" y="56.9902" width="206" height="56" fill="black">
<rect fill="white" x="21.3105" y="56.9902" width="206" height="56"/>
<path fill-rule="evenodd" clip-rule="evenodd" d="M28.3328 60.497L23.3105 85.4421C23.3538 85.4542 23.3976 85.4659 23.4419 85.4778C23.4827 85.4888 23.524 85.4999 23.5654 85.5114C23.3969 86.0817 23.3105 86.6575 23.3105 87.238C23.3114 100.598 68.6888 111.428 124.665 111.428C180.641 111.428 226.02 100.598 226.021 87.238C226.021 86.659 225.933 86.085 225.766 85.5163C225.807 85.5038 225.849 85.4918 225.89 85.48C225.934 85.4674 225.978 85.455 226.021 85.4421L222.075 59.9902C222.024 60.0681 221.972 60.1522 221.917 60.2434C221.917 72.191 178.581 81.8764 125.122 81.8764C72.0418 81.8764 28.9408 72.3277 28.3328 60.497Z"/>
</mask>
<path fill-rule="evenodd" clip-rule="evenodd" d="M28.3328 60.497L23.3105 85.4421C23.3538 85.4542 23.3976 85.4659 23.4419 85.4778C23.4827 85.4888 23.524 85.4999 23.5654 85.5114C23.3969 86.0817 23.3105 86.6575 23.3105 87.238C23.3114 100.598 68.6888 111.428 124.665 111.428C180.641 111.428 226.02 100.598 226.021 87.238C226.021 86.659 225.933 86.085 225.766 85.5163C225.807 85.5038 225.849 85.4918 225.89 85.48C225.934 85.4674 225.978 85.455 226.021 85.4421L222.075 59.9902C222.024 60.0681 221.972 60.1522 221.917 60.2434C221.917 72.191 178.581 81.8764 125.122 81.8764C72.0418 81.8764 28.9408 72.3277 28.3328 60.497Z" fill="#AB1C34"/>
<path d="M23.3105 85.4421L22.3302 85.2447L22.1469 86.1552L23.0414 86.4052L23.3105 85.4421ZM28.3328 60.497L29.3315 60.4456L27.3525 60.2996L28.3328 60.497ZM23.4419 85.4778L23.1823 86.4435L23.1823 86.4435L23.4419 85.4778ZM23.5654 85.5114L24.5244 85.7947L24.8125 84.8197L23.8329 84.5478L23.5654 85.5114ZM23.3105 87.238L22.3105 87.238L22.3105 87.238L23.3105 87.238ZM124.665 111.428L124.665 112.428H124.665V111.428ZM226.021 87.238L227.021 87.238V87.238H226.021ZM225.766 85.5163L225.479 84.5582L224.525 84.8437L224.806 85.7989L225.766 85.5163ZM225.89 85.48L226.166 86.4413L226.166 86.4413L225.89 85.48ZM226.021 85.4421L226.309 86.3995L227.142 86.1485L227.009 85.2889L226.021 85.4421ZM222.075 59.9902L223.063 59.837L222.659 57.235L221.234 59.4488L222.075 59.9902ZM221.917 60.2434L221.06 59.7291L220.917 59.9665V60.2434H221.917ZM23.3105 85.4421L24.2909 85.6394L29.3131 60.6943L28.3328 60.497L27.3525 60.2996L22.3302 85.2447L23.3105 85.4421ZM23.4419 85.4778L23.7015 84.5121C23.6564 84.5 23.6174 84.4895 23.5797 84.479L23.3105 85.4421L23.0414 86.4052C23.0903 86.4188 23.1389 86.4319 23.1823 86.4435L23.4419 85.4778ZM23.5654 85.5114L23.8329 84.5478C23.7868 84.535 23.7417 84.5229 23.7014 84.5121L23.4419 85.4778L23.1823 86.4435C23.2238 86.4547 23.2611 86.4647 23.298 86.475L23.5654 85.5114ZM23.3105 87.238H24.3105C24.3105 86.7581 24.3818 86.2776 24.5244 85.7947L23.5654 85.5114L22.6064 85.2281C22.4121 85.8857 22.3105 86.5568 22.3105 87.238H23.3105ZM124.665 111.428L124.665 110.428C96.7314 110.428 71.4745 107.725 53.2292 103.371C44.0986 101.191 36.7795 98.6114 31.7673 95.7831C26.6743 92.9092 24.3107 89.9832 24.3105 87.2379L23.3105 87.238L22.3105 87.238C22.3108 91.1727 25.6197 94.6106 30.7845 97.5249C36.03 100.485 43.554 103.118 52.7649 105.316C71.2025 109.716 96.6225 112.428 124.665 112.428L124.665 111.428ZM226.021 87.238L225.021 87.2379C225.02 89.9832 222.657 92.9092 217.564 95.7831C212.551 98.6114 205.232 101.191 196.101 103.371C177.856 107.725 152.599 110.428 124.665 110.428V111.428V112.428C152.708 112.428 178.128 109.716 196.566 105.316C205.777 103.118 213.301 100.485 218.546 97.5249C223.711 94.6106 227.02 91.1728 227.021 87.238L226.021 87.238ZM225.766 85.5163L224.806 85.7989C224.949 86.2821 225.021 86.7609 225.021 87.238H226.021H227.021C227.021 86.5571 226.918 85.888 226.725 85.2337L225.766 85.5163ZM225.89 85.48L225.615 84.5187C225.574 84.5303 225.527 84.5438 225.479 84.5582L225.766 85.5163L226.052 86.4743C226.088 86.4637 226.124 86.4533 226.166 86.4413L225.89 85.48ZM226.021 85.4421L225.732 84.4846C225.697 84.4952 225.66 84.5058 225.615 84.5187L225.89 85.48L226.166 86.4413C226.209 86.429 226.259 86.4147 226.309 86.3995L226.021 85.4421ZM222.075 59.9902L221.086 60.1434L225.032 85.5953L226.021 85.4421L227.009 85.2889L223.063 59.837L222.075 59.9902ZM222.075 59.9902L221.234 59.4488C221.178 59.5354 221.12 59.6286 221.06 59.7291L221.917 60.2434L222.775 60.7577C222.824 60.6759 222.871 60.6008 222.915 60.5316L222.075 59.9902ZM221.917 60.2434H220.917C220.917 61.4128 220.392 62.6409 219.213 63.9279C218.03 65.2204 216.237 66.5152 213.843 67.7798C209.059 70.308 202.069 72.6152 193.348 74.5643C175.923 78.4588 151.8 80.8764 125.122 80.8764V81.8764V82.8764C151.902 82.8764 176.177 80.4512 193.785 76.5162C202.58 74.5504 209.766 72.1962 214.778 69.5481C217.283 68.2246 219.293 66.8025 220.688 65.2785C222.089 63.7489 222.917 62.0609 222.917 60.2434H221.917ZM125.122 81.8764V80.8764C98.6325 80.8764 74.663 78.493 57.2662 74.6468C48.5604 72.722 41.5523 70.442 36.707 67.9401C34.2836 66.6887 32.4467 65.4048 31.2098 64.119C29.9755 62.836 29.3913 61.6088 29.3315 60.4456L28.3328 60.497L27.3341 60.5483C27.4264 62.3428 28.322 64.002 29.7685 65.5056C31.2125 67.0066 33.2572 68.4096 35.7894 69.7171C40.8554 72.333 48.054 74.6584 56.8345 76.5996C74.4102 80.4854 98.5311 82.8764 125.122 82.8764V81.8764Z" fill="#341D1A" mask="url(#path-2-outside-1_1_589)"/>
<path d="M123.928 1.00452C144.55 0.919394 180.166 2.15729 193.394 7.86584C202.565 11.8244 210.127 25.2844 215.324 38.2721C187.29 34.6409 157.431 32.6803 126.451 32.6803C94.5189 32.6803 63.7779 34.7625 34.9982 38.611C40.0519 25.5194 47.4491 11.8591 56.4376 7.86584C69.2884 2.15742 103.891 0.91951 123.928 1.00452Z" fill="#E43552"/>
<g filter="url(#filter0_i_1_589)">
<path d="M185.153 53.5354L163.318 44.3889L165.827 55.011H150.483L147.386 22.259L165.827 33.4709L164.352 20.7834H177.039L185.153 53.5354ZM113.453 21.3743C121.42 21.2268 130.272 23.1448 127.469 33.6194C125.226 41.9989 114.437 45.8639 109.322 46.7493L107.404 54.2737H97.5195L101.06 23.1448C102.535 22.6038 107.08 21.4923 113.453 21.3743ZM142.812 53.5354L130.419 54.2737L129.682 21.9641H142.812V53.5354ZM79.2256 23.7346C85.5989 19.7218 94.077 20.7839 97.5195 21.8167L92.9463 29.4875C91.6674 28.7499 88.2242 27.4228 84.6836 28.0129C80.258 28.7506 82.0285 30.8155 89.9951 33.3235C97.9619 35.8315 97.5193 44.5361 89.1094 51.0276C82.3814 56.2205 70.2741 53.7821 65.0615 51.9133L70.9629 41.5852C72.6349 42.5196 76.8056 44.2113 80.1104 43.5032C84.2409 42.618 79.2258 39.9632 74.3574 37.6028C69.4889 35.2423 71.259 28.7507 79.2256 23.7346ZM109.765 35.6848C111.24 35.7831 114.456 35.389 115.519 33.0286C116.58 30.6684 112.715 30.0784 110.649 30.0784L109.765 35.6848Z" fill="#FEFEFF"/>
</g>
<defs>
<filter id="filter0_i_1_589" x="65.0615" y="20.7834" width="120.092" height="34.2275" filterUnits="userSpaceOnUse" color-interpolation-filters="sRGB">
<feFlood flood-opacity="0" result="BackgroundImageFix"/>
<feBlend mode="normal" in="SourceGraphic" in2="BackgroundImageFix" result="shape"/>
<feColorMatrix in="SourceAlpha" type="matrix" values="0 0 0 0 0 0 0 0 0 0 0 0 0 0 0 0 0 0 127 0" result="hardAlpha"/>
<feOffset dy="-1"/>
<feComposite in2="hardAlpha" operator="arithmetic" k2="-1" k3="1"/>
<feColorMatrix type="matrix" values="0 0 0 0 0 0 0 0 0 0 0 0 0 0 0 0 0 0 0.25 0"/>
<feBlend mode="normal" in2="shape" result="effect1_innerShadow_1_589"/>
</filter>
</defs>
</svg>
