<svg width="40" height="41" viewBox="0 0 40 41" fill="none" xmlns="http://www.w3.org/2000/svg">
<path d="M20.366 4.55173C23.2865 5.28089 25.7004 7.14474 27.5744 8.82379C28.4648 9.62163 29.4035 10.5402 30.0428 11.123C30.7797 11.7948 31.2623 12.1578 31.5714 12.2784C31.8761 12.3971 32.1126 12.4455 32.288 12.4591C32.4386 12.4708 32.629 12.4575 32.8854 12.4215C33.0114 12.4038 33.1413 12.383 33.2849 12.3592C33.4242 12.336 33.5777 12.31 33.7319 12.2881C34.3019 12.207 35.1722 12.1212 35.9445 12.5917C37.0223 13.2483 38.4775 14.5476 38.0423 16.4632C37.9242 16.983 37.6283 17.4459 37.298 17.8407C36.9605 18.2442 36.5304 18.6432 36.0521 19.0343C35.0969 19.8153 33.8462 20.6478 32.5107 21.506C29.7936 23.252 26.6841 25.1342 24.3843 27.1422C23.0552 28.3027 21.9553 30.0096 21.0798 31.8999C20.2089 33.7801 19.5885 35.7788 19.1888 37.4599C18.7575 39.2734 16.7872 40.4655 14.9523 39.709L2.99221 34.777C1.30131 34.0798 0.59606 32.0077 1.68064 30.4477C2.86155 28.7495 4.67058 26.3198 6.97243 23.6241C9.14599 21.0788 12.8312 19.2591 16.1245 18.0669C16.1407 18.0404 16.1659 17.9966 16.194 17.9262C16.2788 17.7139 16.3444 17.4012 16.3637 17.047C16.3828 16.6945 16.3524 16.3626 16.2894 16.1188C16.2533 15.9795 16.2186 15.9128 16.205 15.8888C14.6753 14.9275 13.9936 14.4614 13.3147 13.8329C12.9832 13.5259 12.6563 13.1845 12.2413 12.7522C11.8213 12.3148 11.2892 11.7601 10.5224 10.9987C9.76452 10.2462 8.92456 10.136 8.02629 10.3709C7.07255 10.6203 6.10187 11.2602 5.34166 11.9429C4.63888 12.5737 3.58765 12.8776 2.59492 12.4908C1.30695 11.9887 0.670003 10.537 1.17192 9.24897L3.79151 2.52649C4.2717 1.29418 5.66005 0.683916 6.89239 1.16387L7.34553 1.34044C8.39242 1.74839 8.90991 2.92841 8.50197 3.97529C8.49758 3.98668 8.49843 3.99135 8.49887 3.994C8.4998 3.99963 8.50375 4.01227 8.51457 4.02632C8.52539 4.04025 8.53889 4.04965 8.55055 4.05501C8.55999 4.05933 8.57108 4.06313 8.58888 4.06156C11.6883 3.78726 16.6904 3.63419 20.366 4.55173Z" fill="#9C1D28" stroke="#341D1A" stroke-width="2"/>
</svg>
