<svg width="1512" height="105" viewBox="0 0 1512 105" fill="none" xmlns="http://www.w3.org/2000/svg">
<path d="M-1086.03 80.5366C-1080.55 86.0152 -1080.55 94.898 -1086.03 100.377C-1091.5 105.855 -1100.39 105.855 -1105.87 100.377C-1111.34 94.8981 -1120.23 94.898 -1125.71 100.377C-1131.18 105.855 -1140.07 105.855 -1145.54 100.377C-1151.02 94.8981 -1151.02 86.0152 -1145.54 80.5366C-1140.07 75.0582 -1131.18 75.058 -1125.71 80.5364C-1120.23 86.0147 -1111.34 86.0146 -1105.87 80.5364C-1100.39 75.058 -1091.51 75.0581 -1086.03 80.5366ZM-1006.67 80.5363C-1001.19 86.0149 -1001.19 94.8985 -1006.67 100.377C-1012.15 105.855 -1021.03 105.856 -1026.51 100.378C-1031.98 94.8995 -1040.87 94.8995 -1046.34 100.378C-1051.82 105.856 -1060.7 105.855 -1066.18 100.377C-1071.66 94.8985 -1071.66 86.0149 -1066.18 80.5363C-1060.7 75.0582 -1051.82 75.0577 -1046.34 80.5358C-1040.87 86.0139 -1031.98 86.0139 -1026.51 80.5358C-1021.03 75.0577 -1012.15 75.0582 -1006.67 80.5363ZM-966.985 80.5367C-961.507 86.0154 -961.507 94.8979 -966.985 100.377C-972.464 105.855 -981.347 105.855 -986.825 100.377C-992.304 94.8979 -992.304 86.0154 -986.825 80.5367C-981.347 75.0581 -972.464 75.0581 -966.985 80.5367ZM-917.385 90.4567L-927.305 100.377C-932.783 105.855 -941.666 105.855 -947.145 100.377C-952.623 94.8979 -952.623 86.0154 -947.145 80.5367C-941.666 75.0581 -932.783 75.0581 -927.305 80.5367L-917.385 90.4567ZM-847.95 80.5363C-842.471 86.0149 -842.471 94.8985 -847.95 100.377C-853.428 105.855 -862.31 105.856 -867.788 100.378C-873.266 94.8995 -882.148 94.8995 -887.626 100.378C-893.104 105.856 -901.986 105.856 -907.464 100.378L-917.385 90.4567L-907.464 80.5358C-901.986 75.0577 -893.104 75.0577 -887.626 80.5358C-882.148 86.0139 -873.266 86.0139 -867.788 80.5358C-862.31 75.0577 -853.428 75.0582 -847.95 80.5363ZM-808.267 80.5367C-802.788 86.0154 -802.788 94.8979 -808.267 100.377C-813.745 105.855 -822.628 105.855 -828.106 100.377C-833.585 94.8979 -833.585 86.0154 -828.106 80.5367C-822.628 75.0581 -813.745 75.0581 -808.267 80.5367ZM-728.908 80.5365C-723.43 86.0151 -723.43 94.8982 -728.908 100.377C-734.387 105.855 -743.269 105.855 -748.748 100.377C-754.226 94.8987 -763.108 94.8987 -768.586 100.377C-774.065 105.855 -782.947 105.855 -788.426 100.377C-793.904 94.8982 -793.904 86.0151 -788.426 80.5365C-782.947 75.0581 -774.065 75.0579 -768.586 80.5363C-763.108 86.0146 -754.226 86.0146 -748.748 80.5363C-743.269 75.0579 -734.387 75.0581 -728.908 80.5365ZM2164.23 70.6164C2164.23 73.2882 2167.46 74.6263 2169.35 72.7372C2170.52 71.5661 2172.42 71.5662 2173.59 72.7373L2181.39 80.5367C2186.87 86.0154 2186.87 94.8983 2181.39 100.377C2175.91 105.855 2167.03 105.855 2161.55 100.377C2156.07 94.8988 2147.19 94.8988 2141.71 100.377C2136.23 105.855 2127.35 105.855 2121.87 100.377L2111.96 90.458C2111.95 90.4572 2111.95 90.4567 2111.95 90.4567C2111.95 90.4567 2111.95 90.4572 2111.95 90.458L2106.14 96.2676C2098.39 104.016 2085.83 104.016 2078.08 96.2676L2072.27 90.457C2072.27 90.4568 2072.27 90.4567 2072.27 90.4567C2072.27 90.4567 2072.27 90.4568 2072.27 90.457L2066.46 96.2676C2058.71 104.016 2046.15 104.016 2038.4 96.2676L2034 91.8698C2033.1 90.965 2031.87 90.4567 2030.59 90.4567C2029.31 90.4567 2028.08 90.965 2027.18 91.8698L2023.95 95.096C2017.77 101.282 2007.74 101.282 2001.55 95.096L1999.74 93.2872C1997.93 91.4748 1995.47 90.4567 1992.91 90.4567C1990.35 90.4567 1987.89 91.4748 1986.08 93.2872L1984.27 95.096C1978.08 101.282 1968.05 101.282 1961.87 95.096L1960.06 93.2843C1958.24 91.4738 1955.79 90.4567 1953.23 90.4567C1950.67 90.4567 1948.21 91.4739 1946.4 93.2845L1944.59 95.0961C1938.41 101.282 1928.38 101.282 1922.19 95.0964L1920.38 93.2858C1918.57 91.4743 1916.11 90.4567 1913.55 90.4567C1910.99 90.4567 1908.53 91.4743 1906.72 93.2858L1904.91 95.096C1898.72 101.282 1888.69 101.282 1882.51 95.096L1880.7 93.2844C1878.89 91.4738 1876.43 90.4567 1873.87 90.4567C1871.31 90.4567 1868.85 91.4738 1867.04 93.2844L1865.23 95.096C1859.05 101.282 1849.02 101.282 1842.83 95.096L1841.02 93.2851C1839.21 91.4741 1836.75 90.4567 1834.19 90.4567C1831.63 90.4567 1829.17 91.4741 1827.36 93.2851L1825.55 95.096C1819.37 101.282 1809.34 101.282 1803.15 95.096L1801.34 93.2858C1799.53 91.4743 1797.07 90.4567 1794.51 90.4567C1791.95 90.4567 1789.49 91.4743 1787.68 93.2858L1785.87 95.096C1779.68 101.282 1769.66 101.282 1763.47 95.096L1761.66 93.2854C1759.85 91.4742 1757.39 90.4567 1754.83 90.4567C1752.27 90.4567 1749.81 91.4742 1748 93.2854L1746.19 95.096C1740 101.282 1729.97 101.282 1723.79 95.096L1721.98 93.2837C1720.17 91.4736 1717.71 90.4567 1715.15 90.4567C1712.59 90.4567 1710.14 91.4736 1708.33 93.2837L1706.51 95.096C1700.33 101.282 1690.3 101.282 1684.11 95.096L1682.3 93.2837C1680.49 91.4736 1678.04 90.4567 1675.48 90.4567C1672.92 90.4567 1670.46 91.4736 1668.65 93.2837L1666.84 95.096C1660.65 101.282 1650.62 101.282 1644.44 95.096L1642.63 93.2858C1640.82 91.4743 1638.36 90.4567 1635.8 90.4567C1633.24 90.4567 1630.78 91.4743 1628.97 93.2858L1627.16 95.096C1620.97 101.282 1610.94 101.282 1604.76 95.096L1602.95 93.2858C1601.13 91.4743 1598.68 90.4567 1596.12 90.4567C1593.55 90.4567 1591.1 91.4743 1589.29 93.2858L1587.47 95.096C1581.29 101.282 1571.26 101.282 1565.07 95.096L1563.26 93.285C1561.45 91.4741 1559 90.4567 1556.43 90.4567C1553.87 90.4567 1551.42 91.4742 1549.61 93.2852L1547.8 95.0961C1541.61 101.282 1531.58 101.282 1525.4 95.0964L1523.58 93.2837C1521.77 91.4736 1519.32 90.4567 1516.76 90.4567C1514.2 90.4567 1511.74 91.4736 1509.93 93.2837L1508.12 95.096C1501.93 101.282 1491.91 101.282 1485.72 95.096L1483.91 93.2868C1482.1 91.4747 1479.64 90.4567 1477.08 90.4567C1474.51 90.4567 1472.06 91.4747 1470.25 93.2868L1468.44 95.096C1462.25 101.282 1452.22 101.282 1446.03 95.096L1444.22 93.2851C1442.41 91.4741 1439.96 90.4567 1437.4 90.4567C1434.83 90.4567 1432.38 91.4741 1430.57 93.2851L1428.76 95.096C1422.57 101.282 1412.54 101.282 1406.36 95.096C1403.38 92.1255 1399.36 90.4567 1395.15 90.4567H1394.44C1389.78 90.4567 1385.29 92.3306 1381.99 95.625C1375.03 102.592 1363.68 102.649 1356.71 95.6818L1352.9 91.8709C1351.99 90.9654 1350.76 90.4567 1349.48 90.4567C1348.2 90.4567 1346.97 90.9654 1346.07 91.8709L1342.26 95.6818C1335.29 102.649 1324 102.649 1317.03 95.6818L1313.22 91.8702C1312.31 90.9651 1311.08 90.4567 1309.8 90.4567C1308.52 90.4567 1307.3 90.9651 1306.39 91.8702L1302.58 95.6818C1295.61 102.649 1284.32 102.649 1277.35 95.6818L1273.54 91.8709C1272.63 90.9654 1271.41 90.4567 1270.13 90.4567C1268.85 90.4567 1267.62 90.9654 1266.71 91.8709L1262.9 95.6818C1255.93 102.649 1244.64 102.649 1237.67 95.6818L1233.86 91.8709C1232.96 90.9654 1231.73 90.4567 1230.45 90.4567C1229.17 90.4567 1227.94 90.9654 1227.03 91.8709L1223.22 95.6818C1216.25 102.649 1204.96 102.649 1197.99 95.6818L1194.18 91.8708C1193.28 90.9654 1192.05 90.4567 1190.77 90.4567C1189.49 90.4567 1188.26 90.9654 1187.35 91.8709L1183.54 95.6819C1176.58 102.649 1165.28 102.649 1158.31 95.6822L1154.5 91.8716C1153.6 90.9656 1152.37 90.4567 1151.09 90.4567C1149.81 90.4567 1148.58 90.9656 1147.67 91.8716L1143.86 95.6818C1136.89 102.649 1125.6 102.649 1118.63 95.6818L1114.82 91.8708C1113.92 90.9654 1112.69 90.4567 1111.41 90.4567C1110.13 90.4567 1108.9 90.9654 1107.99 91.8709L1104.18 95.6819C1097.21 102.649 1085.92 102.649 1078.95 95.6822L1075.14 91.8708C1074.24 90.9654 1073.01 90.4567 1071.73 90.4567C1070.45 90.4567 1069.22 90.9654 1068.31 91.8709L1064.5 95.6819C1057.54 102.649 1046.24 102.649 1039.27 95.6822L1035.46 91.8695C1034.56 90.9649 1033.33 90.4567 1032.05 90.4567C1030.77 90.4567 1029.54 90.9649 1028.64 91.8695L1024.83 95.6818C1017.86 102.649 1006.57 102.649 999.598 95.6818L995.788 91.8719C994.882 90.9658 993.653 90.4567 992.372 90.4567C991.09 90.4567 989.861 90.9658 988.955 91.8719L985.145 95.6818C978.178 102.649 966.883 102.649 959.916 95.6818L956.104 91.8701C955.199 90.9651 953.971 90.4567 952.691 90.4567C951.411 90.4567 950.184 90.9651 949.279 91.8702L945.468 95.6819C938.501 102.649 927.206 102.649 920.239 95.6822L916.43 91.8726C915.523 90.966 914.293 90.4567 913.011 90.4567C911.729 90.4567 910.5 90.966 909.593 91.8726L905.784 95.6818C898.817 102.649 887.521 102.649 880.554 95.6818L876.743 91.8702C875.838 90.9651 874.61 90.4567 873.33 90.4567C872.05 90.4567 870.823 90.9651 869.917 91.8702L866.106 95.6818C859.139 102.649 847.843 102.649 840.877 95.6818L837.066 91.8709C836.16 90.9654 834.932 90.4567 833.651 90.4567C832.371 90.4567 831.143 90.9654 830.237 91.8709L826.426 95.6818C819.459 102.649 808.164 102.649 801.197 95.6818L797.387 91.8719C796.481 90.9658 795.252 90.4567 793.97 90.4567C792.689 90.4567 791.46 90.9658 790.553 91.8719L786.744 95.6818C779.777 102.649 768.481 102.649 761.514 95.6818L757.702 91.8695C756.797 90.9649 755.57 90.4567 754.291 90.4567C753.012 90.4567 751.785 90.9649 750.88 91.8696L747.068 95.6819C740.102 102.649 728.806 102.649 721.84 95.6822L718.03 91.8726C717.124 90.966 715.894 90.4567 714.612 90.4567C713.33 90.4567 712.1 90.966 711.193 91.8726L707.384 95.6818C700.417 102.649 689.122 102.649 682.155 95.6818L678.343 91.8701C677.438 90.9651 676.211 90.4567 674.931 90.4567C673.651 90.4567 672.423 90.9651 671.518 91.8702L667.707 95.6819C660.74 102.649 649.445 102.649 642.479 95.6822L638.667 91.8712C637.762 90.9655 636.533 90.4567 635.252 90.4567C633.972 90.4567 632.743 90.9655 631.837 91.8712L628.027 95.6818C621.06 102.649 609.764 102.649 602.797 95.6818L598.986 91.8701C598.081 90.9651 596.853 90.4567 595.573 90.4567C594.293 90.4567 593.066 90.9651 592.161 91.8702L588.349 95.6819C581.383 102.649 570.088 102.649 563.121 95.6822L559.31 91.8716C558.404 90.9656 557.176 90.4567 555.895 90.4567C554.613 90.4567 553.385 90.9656 552.479 91.8716L548.668 95.6818C541.702 102.649 530.406 102.649 523.439 95.6818L519.628 91.8708C518.723 90.9654 517.495 90.4567 516.214 90.4567C514.933 90.4567 513.705 90.9654 512.8 91.8709L508.989 95.6819C502.022 102.649 490.727 102.649 483.761 95.6822L479.95 91.8716C479.044 90.9656 477.815 90.4567 476.534 90.4567C475.253 90.4567 474.024 90.9656 473.118 91.8716L469.308 95.6818C462.341 102.649 451.046 102.649 444.079 95.6818L440.268 91.8716C439.362 90.9656 438.134 90.4567 436.853 90.4567C435.571 90.4567 434.343 90.9656 433.437 91.8716L429.626 95.6818C422.66 102.649 411.364 102.649 404.397 95.6818L400.585 91.8695C399.68 90.9649 398.453 90.4567 397.174 90.4567C395.895 90.4567 394.668 90.9649 393.763 91.8695L389.951 95.6818C382.984 102.649 371.688 102.649 364.721 95.6818L360.911 91.8719C360.005 90.9658 358.776 90.4567 357.495 90.4567C356.213 90.4567 354.984 90.9658 354.078 91.8719L350.268 95.6818C343.301 102.649 332.005 102.649 325.039 95.6818L321.228 91.8709C320.322 90.9654 319.094 90.4567 317.813 90.4567C316.533 90.4567 315.305 90.9654 314.399 91.8709L310.588 95.6818C303.621 102.649 292.326 102.649 285.359 95.6818L281.548 91.8709C280.642 90.9654 279.414 90.4567 278.134 90.4567C276.853 90.4567 275.625 90.9654 274.72 91.8709L270.909 95.6818C263.942 102.649 252.646 102.649 245.679 95.6818L241.866 91.8688C240.962 90.9646 239.736 90.4567 238.457 90.4567C237.178 90.4567 235.952 90.9646 235.048 91.8688L231.235 95.6818C224.268 102.649 212.972 102.649 206.005 95.6818L202.197 91.873C201.29 90.9661 200.06 90.4567 198.777 90.4567C197.495 90.4567 196.265 90.9661 195.358 91.873L191.549 95.6818C184.582 102.649 173.287 102.649 166.32 95.6818L162.508 91.8702C161.603 90.9651 160.376 90.4567 159.096 90.4567C157.816 90.4567 156.588 90.9651 155.683 91.8702L151.871 95.6818C144.905 102.649 133.609 102.649 126.642 95.6818L123.939 92.9789C122.324 91.3639 120.134 90.4567 117.85 90.4567C115.566 90.4567 113.376 91.3639 111.761 92.9789L104.363 100.377C98.8844 105.855 90.0023 105.855 84.5239 100.377C79.0455 94.8987 70.1635 94.8987 64.6851 100.377C59.2067 105.855 50.3243 105.855 44.8459 100.377C39.3673 94.8982 30.4844 94.898 25.0059 100.377C19.5272 105.855 10.6445 105.855 5.16589 100.377C-0.3125 94.8981 -9.19507 94.898 -14.6733 100.377C-20.1516 105.855 -29.0341 105.855 -34.5125 100.377L-44.4323 90.457C-44.4325 90.4568 -44.4327 90.4567 -44.4331 90.4567C-44.4335 90.4567 -44.4337 90.4568 -44.434 90.457L-54.3536 100.377C-59.8322 105.855 -68.7148 105.855 -74.1935 100.377C-79.6719 94.8981 -88.5544 94.898 -94.0327 100.377C-99.511 105.855 -108.393 105.855 -113.872 100.377L-123.791 90.4574C-123.792 90.4569 -123.792 90.4567 -123.793 90.4567C-123.794 90.4567 -123.794 90.4569 -123.795 90.4574L-133.714 100.377C-139.193 105.855 -148.075 105.855 -153.554 100.377C-159.032 94.8981 -167.915 94.898 -173.393 100.377C-178.871 105.855 -187.754 105.855 -193.232 100.377C-198.711 94.8981 -207.594 94.8985 -213.073 100.377C-218.551 105.855 -227.433 105.856 -232.911 100.378C-238.389 94.8996 -247.271 94.8995 -252.749 100.378C-258.226 105.856 -267.108 105.856 -272.586 100.378L-282.505 90.458C-282.506 90.4572 -282.508 90.4567 -282.509 90.4567C-282.51 90.4567 -282.511 90.4572 -282.512 90.458L-292.431 100.377C-297.91 105.855 -306.792 105.855 -312.27 100.377C-317.748 94.8988 -326.63 94.8988 -332.108 100.377C-337.586 105.855 -346.468 105.855 -351.947 100.377L-361.866 90.4577C-361.867 90.457 -361.868 90.4567 -361.869 90.4567C-361.87 90.4567 -361.87 90.457 -361.871 90.4577L-371.791 100.377C-377.269 105.855 -386.151 105.855 -391.629 100.377C-397.108 94.8988 -405.99 94.8988 -411.468 100.377C-416.946 105.855 -425.828 105.855 -431.306 100.377L-441.226 90.4577C-441.226 90.457 -441.227 90.4567 -441.228 90.4567C-441.229 90.4567 -441.23 90.457 -441.231 90.4577L-447.04 96.2676C-454.788 104.016 -467.35 104.016 -475.098 96.2676L-480.909 90.4574C-480.909 90.4569 -480.91 90.4567 -480.91 90.4567C-480.911 90.4567 -480.911 90.4569 -480.912 90.4574L-490.832 100.378C-496.31 105.856 -505.192 105.856 -510.67 100.378C-516.148 94.8995 -525.03 94.8995 -530.508 100.378C-535.986 105.856 -544.868 105.856 -550.346 100.378L-560.265 90.4584C-560.266 90.4573 -560.267 90.4567 -560.269 90.4567C-560.271 90.4567 -560.272 90.4573 -560.273 90.4584L-570.192 100.378C-575.67 105.856 -584.552 105.856 -590.03 100.378C-595.508 94.8995 -604.39 94.8995 -609.868 100.378C-615.346 105.856 -624.228 105.856 -629.706 100.378L-639.626 90.4574C-639.627 90.4569 -639.627 90.4567 -639.628 90.4567C-639.629 90.4567 -639.629 90.4569 -639.63 90.4574L-649.549 100.377C-655.028 105.855 -663.91 105.855 -669.388 100.377C-674.867 94.8987 -683.749 94.8987 -689.227 100.377C-694.705 105.855 -703.588 105.855 -709.066 100.377C-714.545 94.8982 -714.545 86.0151 -709.066 80.5365C-703.588 75.0581 -694.705 75.0579 -689.227 80.5363C-683.749 86.0146 -674.867 86.0146 -669.388 80.5363L-660.589 71.7375C-659.97 71.1186 -658.967 71.1186 -658.348 71.7375C-657.35 72.7359 -655.643 72.0288 -655.643 70.6168V-265.784C-655.643 -279.038 -644.897 -289.784 -631.643 -289.784H2140.23C2153.49 -289.784 2164.23 -279.038 2164.23 -265.784V70.6164ZM2260.75 80.5366C2266.23 86.0152 2266.23 94.898 2260.75 100.377C2255.27 105.855 2246.39 105.855 2240.91 100.377C2235.43 94.8981 2226.55 94.898 2221.07 100.377C2215.59 105.855 2206.71 105.855 2201.23 100.377C2195.75 94.8981 2195.75 86.0152 2201.23 80.5366C2206.71 75.0582 2215.59 75.058 2221.07 80.5364C2226.55 86.0147 2235.43 86.0146 2240.91 80.5364C2246.39 75.058 2255.27 75.0581 2260.75 80.5366ZM2340.11 80.536C2345.59 86.0146 2345.59 94.8987 2340.11 100.377C2334.63 105.855 2325.75 105.856 2320.27 100.378C2314.79 94.9002 2305.91 94.9002 2300.43 100.378C2294.95 105.856 2286.07 105.855 2280.59 100.377C2275.12 94.8987 2275.12 86.0146 2280.59 80.536C2286.07 75.0582 2294.95 75.0575 2300.43 80.5353C2305.91 86.0131 2314.79 86.0131 2320.27 80.5353C2325.75 75.0575 2334.63 75.0582 2340.11 80.536ZM2419.47 80.5366C2424.95 86.0152 2424.95 94.898 2419.47 100.377C2413.99 105.855 2405.11 105.855 2399.63 100.377C2394.15 94.8981 2385.27 94.898 2379.79 100.377C2374.31 105.855 2365.43 105.855 2359.95 100.377C2354.47 94.8981 2354.47 86.0152 2359.95 80.5366C2365.43 75.0582 2374.31 75.058 2379.79 80.5364C2385.27 86.0147 2394.15 86.0146 2399.63 80.5364C2405.11 75.058 2413.99 75.0581 2419.47 80.5366ZM2469.07 90.4567L2459.15 100.377C2453.67 105.855 2444.79 105.855 2439.31 100.377C2433.83 94.8979 2433.83 86.0154 2439.31 80.5367C2444.79 75.0581 2453.67 75.0581 2459.15 80.5367L2469.07 90.4567ZM2617.86 80.5364C2623.34 86.015 2623.34 94.8983 2617.86 100.377C2612.38 105.855 2603.5 105.855 2598.02 100.377C2592.55 94.8988 2583.66 94.8988 2578.19 100.377C2572.71 105.855 2563.83 105.855 2558.35 100.377C2552.87 94.8984 2543.99 94.8981 2538.51 100.377C2533.03 105.855 2524.15 105.855 2518.67 100.377C2513.19 94.8988 2504.31 94.8988 2498.83 100.377C2493.35 105.855 2484.47 105.855 2478.99 100.377L2469.07 90.4567L2478.99 80.5359C2484.47 75.0577 2493.35 75.0577 2498.83 80.5359C2504.31 86.0139 2513.19 86.0139 2518.67 80.5359C2524.15 75.0578 2533.03 75.0579 2538.51 80.5361C2543.99 86.0145 2552.87 86.0143 2558.35 80.536C2563.83 75.058 2572.71 75.0576 2578.19 80.5358C2583.66 86.0139 2592.55 86.0139 2598.02 80.5359C2603.5 75.0578 2612.38 75.0581 2617.86 80.5364ZM2657.55 80.5367C2663.02 86.0154 2663.02 94.8979 2657.55 100.377C2652.07 105.855 2643.18 105.855 2637.71 100.377C2632.23 94.8979 2632.23 86.0154 2637.71 80.5367C2643.18 75.0581 2652.07 75.0581 2657.55 80.5367Z" fill="#FFF6DE"/>
</svg>
