<svg width="108" height="107" viewBox="0 0 108 107" fill="none" xmlns="http://www.w3.org/2000/svg">
<path d="M84.9361 48.0893C85.048 48.8454 85.1194 49.6346 85.123 50.4417L85.1227 50.4426C85.1694 58.8105 82.7513 66.0248 77.069 71.3078L76.5086 71.8132C76.2899 72.0049 76.0949 72.1902 75.9192 72.3554C75.7461 72.5181 75.5918 72.6591 75.4396 72.7853L70.6766 76.0363C69.7971 76.5153 69.022 76.9236 68.1304 77.3247L68.1294 77.3244C66.5433 78.0421 64.6106 78.7852 62.8012 79.2278C54.8523 81.1755 46.2502 80.8912 38.4354 77.0613L37.6819 76.6803C34.23 74.8688 31.2714 72.5349 28.9512 69.8364L28.4951 69.2922C26.3467 66.646 25.3449 64.563 24.7566 62.8982C24.4604 62.0598 24.2677 61.3238 24.0825 60.6483C23.911 60.0227 23.7408 59.4335 23.4983 58.8984C23.4975 58.4267 23.4385 57.901 23.3726 57.3922C23.2991 56.8238 23.2195 56.2689 23.1916 55.749L23.1919 55.748L23.1745 55.3472C23.1564 54.8016 23.1617 54.2438 23.19 53.6755C23.7168 56.8035 24.9359 59.5623 26.3335 61.6705C29.8072 66.9155 36.1578 71.7283 43.3575 73.6497C51.4253 75.8028 58.758 75.8054 66.2827 73.4122C72.2578 71.5141 77.4077 65.6314 81.19 59.4904C83.8685 55.1438 84.9446 51.3899 84.9361 48.0893Z" fill="#FFA013" stroke="#530D11"/>
<path d="M84.1623 43.8345C86.6329 48.7437 85.9371 54.0739 82.778 59.1317C79.6117 64.2006 73.9822 68.9666 66.672 72.6456C59.4529 76.2787 49.9401 76.315 41.6378 73.435C33.3342 70.5544 26.3521 64.7982 24.0758 56.9665C20.3685 44.2119 29.8299 31.3393 42.9724 28.002C63.6638 22.7482 78.8595 33.2978 84.1623 43.8345Z" fill="#FFA013" stroke="#530D11"/>
<path d="M69.8633 29.9032C73.4516 31.5332 76.6852 33.7639 79.2975 36.5914L29.9103 65.235C28.6955 64.0095 27.633 62.7169 26.7587 61.3968C25.7864 59.9301 24.9054 58.1422 24.2918 56.1332L69.8633 29.9032ZM59.1072 26.915C50.2689 32.0027 35.5906 40.4087 23.6971 47.2127C24.1295 44.7243 25.0994 42.139 26.8052 39.5632C33.4467 29.5362 46.7775 25.3718 59.1072 26.915Z" fill="#FFBD5C"/>
<path d="M58.4978 54.3495L50.1337 53.1983C49.7461 53.1327 49.4825 53.0057 49.3428 52.8171C49.2231 52.634 49.186 52.3459 49.2318 51.9527L49.704 47.854C49.7498 47.4608 49.8796 47.1873 50.0936 47.0334C50.3273 46.885 50.638 46.8436 51.0257 46.9092L57.1744 47.7299C57.4828 47.7733 57.7158 47.7423 57.8735 47.6368C58.0312 47.5313 58.1516 47.3299 58.2346 47.0326C58.3122 46.7551 58.3009 46.5276 58.201 46.3501C58.101 46.1726 57.9222 46.0478 57.6645 45.9758L49.4592 43.6831C49.0826 43.5779 48.8273 43.4211 48.6932 43.2127C48.5845 42.99 48.5828 42.6904 48.688 42.3138L49.6931 38.7165C49.7984 38.34 49.9524 38.0946 50.1553 37.9803C50.3835 37.8518 50.6859 37.8401 51.0624 37.9453L60.6651 40.6285C62.5876 41.1657 63.9665 42.0424 64.8018 43.2587C65.6427 44.4552 65.8278 45.8957 65.357 47.5804L64.4848 50.702C64.0196 52.3669 63.2711 53.4397 62.2393 53.9207C61.2075 54.4016 59.9604 54.5445 58.4978 54.3495ZM52.9003 61.5353L47.4598 60.0151C47.0832 59.9099 46.8279 59.7531 46.6938 59.5447C46.5851 59.322 46.5834 59.0224 46.6886 58.6458L47.7768 54.7512C47.882 54.3747 48.0361 54.1293 48.2389 54.015C48.4671 53.8865 48.7695 53.8748 49.1461 53.98L54.5866 55.5002C54.9632 55.6054 55.2058 55.7694 55.3145 55.9921C55.4486 56.2005 55.463 56.493 55.3578 56.8695L54.2696 60.7641C54.1644 61.1407 53.9976 61.3932 53.7694 61.5218C53.5666 61.636 53.2768 61.6405 52.9003 61.5353Z" fill="#341D1A"/>
</svg>
