<svg width="137" height="136" viewBox="0 0 137 136" fill="none" xmlns="http://www.w3.org/2000/svg">
<path d="M90.4053 49.3501C90.6583 49.6773 90.9042 50.0193 91.1361 50.3771L91.3472 50.7135C95.3675 57.3049 96.8888 64.154 94.9142 71.0286L94.712 71.6939C94.63 71.9507 94.5633 72.1916 94.503 72.4059C94.4438 72.6165 94.3893 72.7997 94.3297 72.9704L92.1153 77.8024C91.647 78.6018 91.2287 79.2937 90.7145 80.0359L90.7138 80.0371C89.8018 81.3594 88.6285 82.8658 87.4102 84.0758L87.4093 84.0761C82.0536 89.3996 75.121 93.2695 67.124 93.9623L66.3475 94.0189C62.5184 94.2444 58.8502 93.734 55.5739 92.5538L55.5749 92.5535C52.6183 91.4852 50.8363 90.3174 49.5809 89.2833C48.9483 88.7623 48.4464 88.2729 47.9776 87.8264C47.5458 87.415 47.1306 87.0287 46.6829 86.7194C46.4566 86.3468 46.1604 85.9607 45.8684 85.5927C45.5387 85.1772 45.2125 84.7765 44.9436 84.3799L44.9433 84.3789C44.6584 83.9603 44.3877 83.519 44.1295 83.0578C45.9908 85.1458 48.1745 86.6609 50.2022 87.6237L50.2024 87.6247C55.4583 90.1231 62.7856 90.9048 69.4061 88.9918C76.8211 86.8491 82.63 83.3532 87.4482 77.8682C91.2803 73.5085 92.5519 66.3893 92.6181 59.7267C92.6634 55.2716 91.8305 51.912 90.4053 49.3501Z" fill="#FFA013" stroke="#530D11"/>
<path d="M87.4562 45.9546C91.7361 48.6524 93.7209 53.1864 93.6317 58.683C93.5423 64.1931 91.3634 70.6396 87.3354 77.0297C83.362 83.3332 75.8627 87.8899 67.9297 89.5657C59.9955 91.2417 51.743 90.0144 46.2225 84.9143C37.232 76.6083 38.5766 61.9413 47.373 53.05C61.2263 39.0473 78.2549 40.1545 87.4562 45.9546Z" fill="#FFA013" stroke="#530D11"/>
<path d="M69.5162 41.7187C73.1324 41.2974 76.7544 41.5206 80.1692 42.5119L54.7459 88.7059C53.2032 88.3153 51.7489 87.7995 50.43 87.1726C48.9602 86.4747 47.4088 85.4793 45.9647 84.1801L69.5162 41.7187ZM59.5741 44.4869C55.0092 52.7172 47.4101 66.3491 41.2448 77.3953C40.4046 75.2238 39.9404 72.7212 40.0624 69.8767C40.5388 58.7856 49.0923 49.144 59.5741 44.4869Z" fill="#FFBD5C"/>
</svg>
