<svg width="42" height="43" viewBox="0 0 42 43" fill="none" xmlns="http://www.w3.org/2000/svg">
<path d="M11.1913 11.6871C13.214 9.45777 15.9973 8.2112 18.3626 7.35305C19.4865 6.94531 20.7396 6.55209 21.5553 6.26412C22.4956 5.93217 23.0436 5.67838 23.2959 5.46292C23.5445 5.25049 23.6989 5.06492 23.7938 4.91672C23.8752 4.78956 23.9535 4.61546 24.043 4.37245C24.0869 4.25309 24.13 4.12874 24.1768 3.99092C24.2223 3.85725 24.2718 3.70968 24.3254 3.56343C24.5233 3.02273 24.8589 2.21521 25.6385 1.75687C26.7265 1.11732 28.5593 0.448813 30.0418 1.73756C30.4441 2.08726 30.7122 2.56679 30.9041 3.04443C31.1002 3.53258 31.2486 4.10013 31.3672 4.70646C31.6042 5.91739 31.7468 7.41305 31.8721 8.99556C32.1269 12.2152 32.3164 15.845 32.9992 18.8208C33.3939 20.5405 34.3785 22.3164 35.6307 23.9813C36.8762 25.6372 38.3446 27.1285 39.6372 28.2752C41.0317 29.5122 41.1512 31.812 39.6174 33.0716L29.6191 41.2815C28.2056 42.4423 26.0462 42.0847 25.1839 40.3916C24.2453 38.5484 22.9589 35.806 21.6708 32.5035C20.4547 29.3851 20.5925 25.2775 21.098 21.8117C21.0823 21.7849 21.0556 21.742 21.0069 21.684C20.8598 21.5089 20.6152 21.3033 20.3122 21.1189C20.0106 20.9355 19.7037 20.8054 19.459 20.7458C19.3193 20.7118 19.2441 20.7108 19.2165 20.7115C17.6464 21.6053 16.9135 21.9859 16.0388 22.2872C15.6116 22.4344 15.1562 22.5611 14.5792 22.7226C13.9951 22.886 13.2549 23.0928 12.2215 23.4088C11.2002 23.7211 10.7061 24.4093 10.4887 25.312C10.2578 26.2704 10.3631 27.4282 10.6055 28.4208C10.8294 29.3383 10.6004 30.4083 9.79038 31.1004C8.73931 31.9983 7.15892 31.8736 6.26093 30.8226L1.57424 25.3373C0.715112 24.3318 0.833341 22.8198 1.83866 21.9606L2.20841 21.6446C3.06263 20.9148 4.34713 21.0163 5.07698 21.8706C5.08495 21.8798 5.08946 21.8813 5.092 21.8821C5.0974 21.884 5.11042 21.8864 5.12791 21.8836C5.1453 21.8806 5.15996 21.8732 5.1702 21.8654C5.17847 21.8591 5.18706 21.8512 5.19408 21.8347C6.41694 18.9736 8.64577 14.4929 11.1913 11.6871Z" fill="#9C1D28" stroke="#341D1A" stroke-width="2"/>
</svg>
