<svg width="499" height="297" viewBox="0 0 499 297" fill="none" xmlns="http://www.w3.org/2000/svg">
<rect x="468.177" y="120.962" width="26.1498" height="54.2166" rx="1.5" fill="#0076CC" stroke="#341D1A"/>
<rect x="479.16" y="77.5394" width="7.47867" height="67.7372" rx="3.73933" fill="#9CDEFA" stroke="#341D1A"/>
<rect x="444.679" y="89.256" width="25.454" height="117.647" rx="1.5" fill="#0076CC" stroke="#341D1A"/>
<g filter="url(#filter0_ii_1_983)">
<path d="M23.3722 74.4319C23.3722 50.7856 41.1996 31.6164 63.1907 31.6164L410.18 31.6164C432.171 31.6164 449.999 50.7856 449.999 74.4319V125.658L451.214 147.448L449.999 169.238V215.309C449.999 238.956 432.171 258.125 410.18 258.125H63.1907C41.1996 258.125 23.3722 238.956 23.3722 215.309L23.3722 169.238L23.3459 147.448L23.3722 125.658V74.4319Z" fill="#A5DFF7"/>
</g>
<path d="M410.18 29.6164C433.41 29.6164 451.998 49.8201 451.998 74.4318V125.598L453.211 147.336L453.217 147.447L453.211 147.559L451.998 169.296V215.309C451.998 239.921 433.41 260.124 410.18 260.124H63.1907C39.9608 260.124 21.3723 239.921 21.3723 215.309L21.3723 169.24L21.3459 147.45V147.445L21.3723 125.657L21.3723 74.4318C21.3724 49.8201 39.9608 29.6164 63.1907 29.6164L410.18 29.6164Z" stroke="#341D1A" stroke-width="4"/>
<g filter="url(#filter1_ii_1_983)">
<g clip-path="url(#clip0_1_983)">
<rect x="51.7133" y="78.9147" width="79.9068" height="142.056" rx="11" fill="#F7F7F7"/>
<rect x="-1.97208" y="193.422" width="173.632" height="32.9286" fill="#E2E2E2"/>
<rect x="-2.41586" y="73.6899" width="173.632" height="32.9286" fill="#E2E2E2"/>
<path d="M90.0234 114.053C94.3856 113.353 98.668 114.933 102.135 116.567C103.009 116.979 103.843 117.401 104.618 117.797C105.399 118.195 106.112 118.563 106.77 118.881C107.428 119.199 108.002 119.454 108.496 119.628C109 119.805 109.357 119.875 109.596 119.875C110.647 119.875 111.17 119.534 111.439 119.234C111.738 118.902 111.831 118.502 111.831 118.282V117.386L112.722 117.288C113.825 117.167 115.515 117.233 117.029 117.86C118.59 118.507 120.026 119.792 120.295 122.053C120.465 123.489 119.877 125.297 119.026 127.19C118.152 129.136 116.898 131.384 115.517 133.774C112.731 138.594 109.408 144.027 107.283 149.137C105.634 153.101 105.095 158.345 105.122 163.367C105.149 168.369 105.735 173.04 106.264 175.794L106.497 177.012L105.257 176.982L78.833 176.334L77.7129 176.306L77.8672 175.196C78.2335 172.554 79.6092 164.99 82.208 155.617C83.5579 150.748 86.7179 145.972 90.0508 142.014C92.2322 139.424 94.517 137.151 96.4805 135.391C94.7943 135.47 92.7289 135.352 90.4873 134.813C87.792 134.165 86.6136 133.82 85.3564 133.198C84.7466 132.896 84.1247 132.532 83.3174 132.061C82.5023 131.587 81.4668 130.984 79.9961 130.18C79.0367 129.656 78.221 129.628 77.499 129.86C76.7388 130.105 75.9873 130.671 75.2734 131.497C73.8388 133.157 72.7856 135.601 72.2676 137.365L72.0566 138.083H66.5332V117.282H72.8477V121.601C74.5839 120.487 76.8948 119.125 79.4199 117.858C82.7984 116.163 86.6366 114.595 90.0234 114.053Z" fill="#9C1D28" stroke="#341D1A" stroke-width="2"/>
</g>
<rect x="50.2133" y="77.4147" width="82.9068" height="145.056" rx="12.5" stroke="#341D1A" stroke-width="3"/>
</g>
<g filter="url(#filter2_ii_1_983)">
<g clip-path="url(#clip1_1_983)">
<rect x="149.373" y="78.9147" width="78.427" height="142.056" rx="11" fill="#F7F7F7"/>
<rect x="96.6822" y="193.422" width="170.417" height="32.9286" fill="#E2E2E2"/>
<rect x="97.0141" y="73.6899" width="170.417" height="32.9286" fill="#E2E2E2"/>
<path d="M187.336 114.053C191.698 113.353 195.981 114.933 199.447 116.567C200.322 116.979 201.155 117.401 201.931 117.797C202.711 118.195 203.425 118.563 204.082 118.881C204.74 119.199 205.315 119.454 205.809 119.628C206.313 119.805 206.669 119.875 206.908 119.875C207.959 119.875 208.482 119.534 208.752 119.234C209.051 118.902 209.143 118.502 209.144 118.282V117.386L210.034 117.288C211.137 117.167 212.827 117.233 214.342 117.86C215.903 118.507 217.339 119.792 217.607 122.053C217.778 123.489 217.189 125.297 216.339 127.19C215.465 129.136 214.211 131.384 212.829 133.774C210.043 138.594 206.721 144.027 204.596 149.137C202.947 153.101 202.408 158.345 202.435 163.367C202.461 168.369 203.048 173.04 203.576 175.794L203.81 177.012L202.569 176.982L176.146 176.334L175.025 176.306L175.18 175.196C175.546 172.554 176.922 164.99 179.521 155.617C180.87 150.748 184.03 145.972 187.363 142.014C189.545 139.424 191.829 137.151 193.793 135.391C192.107 135.47 190.041 135.352 187.8 134.813C185.104 134.165 183.926 133.82 182.669 133.198C182.059 132.896 181.437 132.532 180.63 132.061C179.815 131.587 178.779 130.984 177.309 130.18C176.349 129.656 175.534 129.628 174.812 129.86C174.051 130.105 173.3 130.671 172.586 131.497C171.151 133.157 170.098 135.601 169.58 137.365L169.369 138.083H163.846V117.282H170.16V121.601C171.896 120.487 174.207 119.125 176.732 117.858C180.111 116.163 183.949 114.595 187.336 114.053Z" fill="#9C1D28" stroke="#341D1A" stroke-width="2"/>
</g>
<rect x="147.873" y="77.4147" width="81.427" height="145.056" rx="12.5" stroke="#341D1A" stroke-width="3"/>
</g>
<g filter="url(#filter3_ii_1_983)">
<g clip-path="url(#clip2_1_983)">
<rect x="245.558" y="78.9147" width="79.9068" height="142.056" rx="11" fill="#F7F7F7"/>
<rect x="191.872" y="193.422" width="173.632" height="32.9286" fill="#E2E2E2"/>
<rect x="191.872" y="73.6899" width="173.632" height="32.9286" fill="#E2E2E2"/>
<path d="M283.868 114.053C288.23 113.353 292.512 114.933 295.979 116.567C296.854 116.979 297.687 117.401 298.463 117.797C299.243 118.195 299.956 118.563 300.614 118.881C301.272 119.199 301.846 119.454 302.34 119.628C302.845 119.805 303.201 119.875 303.44 119.875C304.491 119.875 305.014 119.534 305.284 119.234C305.582 118.902 305.675 118.502 305.675 118.282V117.386L306.566 117.288C307.669 117.167 309.359 117.233 310.874 117.86C312.434 118.507 313.87 119.792 314.139 122.053C314.31 123.489 313.721 125.297 312.871 127.19C311.997 129.136 310.742 131.384 309.361 133.774C306.575 138.594 303.252 144.027 301.128 149.137C299.479 153.101 298.94 158.345 298.966 163.367C298.993 168.369 299.58 173.04 300.108 175.794L300.341 177.012L299.101 176.982L272.677 176.334L271.557 176.306L271.712 175.196C272.078 172.554 273.454 164.99 276.052 155.617C277.402 150.748 280.562 145.972 283.895 142.014C286.077 139.424 288.361 137.151 290.325 135.391C288.639 135.47 286.573 135.352 284.332 134.813C281.636 134.165 280.458 133.82 279.201 133.198C278.591 132.896 277.969 132.532 277.162 132.061C276.347 131.587 275.311 130.984 273.84 130.18C272.881 129.656 272.065 129.628 271.343 129.86C270.583 130.105 269.832 130.671 269.118 131.497C267.683 133.157 266.63 135.601 266.112 137.365L265.901 138.083H260.378V117.282H266.692V121.601C268.428 120.487 270.739 119.125 273.264 117.858C276.643 116.163 280.481 114.595 283.868 114.053Z" fill="#9C1D28" stroke="#341D1A" stroke-width="2"/>
</g>
<rect x="244.058" y="77.4147" width="82.9068" height="145.056" rx="12.5" stroke="#341D1A" stroke-width="3"/>
</g>
<g filter="url(#filter4_ii_1_983)">
<g clip-path="url(#clip3_1_983)">
<rect x="343.225" y="78.9147" width="79.9068" height="142.056" rx="11" fill="#F7F7F7"/>
<rect x="289.54" y="193.422" width="173.632" height="32.9286" fill="#E2E2E2"/>
<rect x="289.54" y="73.6899" width="173.632" height="32.9286" fill="#E2E2E2"/>
<path d="M381.536 114.053C385.898 113.353 390.18 114.933 393.647 116.567C394.521 116.979 395.355 117.401 396.13 117.797C396.911 118.195 397.624 118.563 398.282 118.881C398.94 119.199 399.514 119.454 400.008 119.628C400.513 119.805 400.869 119.875 401.108 119.875C402.159 119.875 402.682 119.534 402.952 119.234C403.25 118.902 403.343 118.502 403.343 118.282V117.386L404.234 117.288C405.337 117.167 407.027 117.233 408.542 117.86C410.102 118.507 411.538 119.792 411.807 122.053C411.978 123.489 411.389 125.297 410.539 127.19C409.664 129.136 408.41 131.384 407.029 133.774C404.243 138.594 400.92 144.027 398.795 149.137C397.147 153.101 396.608 158.345 396.634 163.367C396.661 168.369 397.247 173.04 397.776 175.794L398.009 177.012L396.769 176.982L370.345 176.334L369.225 176.306L369.379 175.196C369.746 172.554 371.121 164.99 373.72 155.617C375.07 150.748 378.23 145.972 381.563 142.014C383.744 139.424 386.029 137.151 387.993 135.391C386.307 135.47 384.241 135.352 382 134.813C379.304 134.165 378.126 133.82 376.869 133.198C376.259 132.896 375.637 132.532 374.83 132.061C374.015 131.587 372.979 130.984 371.508 130.18C370.549 129.656 369.733 129.628 369.011 129.86C368.251 130.105 367.499 130.671 366.786 131.497C365.351 133.157 364.298 135.601 363.78 137.365L363.569 138.083H358.045V117.282H364.36V121.601C366.096 120.487 368.407 119.125 370.932 117.858C374.311 116.163 378.149 114.595 381.536 114.053Z" fill="#9C1D28" stroke="#341D1A" stroke-width="2"/>
</g>
<rect x="341.725" y="77.4147" width="82.9068" height="145.056" rx="12.5" stroke="#341D1A" stroke-width="3"/>
</g>
<path fill-rule="evenodd" clip-rule="evenodd" d="M226.054 43.7214C224.884 43.7575 224.03 44.8524 224.404 45.9622C224.449 46.0961 224.495 46.2293 224.543 46.3619C225.294 48.4476 226.359 50.331 227.676 51.9044C228.994 53.4779 230.538 54.7106 232.222 55.5323C233.905 56.3539 235.695 56.7483 237.488 56.6931C239.281 56.6378 241.042 56.1339 242.672 55.2101C244.302 54.2864 245.768 52.9608 246.986 51.3092C248.204 49.6576 249.151 47.7122 249.772 45.5842C249.811 45.4489 249.849 45.3131 249.886 45.1767C250.191 44.046 249.271 43.0057 248.101 43.0418C247.229 43.0687 246.503 43.698 246.262 44.5356C246.256 44.554 246.251 44.5723 246.246 44.5906C245.732 46.349 244.964 47.9071 244.017 49.1905C243.071 50.4732 241.981 51.4373 240.843 52.0823C239.711 52.7239 238.536 53.0489 237.377 53.0847C236.217 53.1204 235.024 52.8684 233.855 52.2977C232.679 51.724 231.532 50.8289 230.508 49.6069C229.485 48.3842 228.622 46.8765 228.001 45.153C227.994 45.1351 227.988 45.1171 227.982 45.0991C227.689 44.2779 226.926 43.6945 226.054 43.7214Z" fill="#341D1A"/>
<path d="M109.424 33.4546L115.542 46.3716H124.154L117.808 33.4546H109.424Z" fill="#341D1A"/>
<path d="M113.066 9.18896C121.733 9.18904 128.718 16.0399 128.718 24.4399C128.718 32.84 121.733 39.6908 113.066 39.6909C104.399 39.6909 97.4149 32.84 97.4149 24.4399C97.4149 16.0399 104.399 9.18896 113.066 9.18896Z" fill="#A5DFF7" stroke="#341D1A" stroke-width="2"/>
<path d="M97.7097 6.90436L89.0638 0.500031" stroke="#341D1A" stroke-linecap="round"/>
<path d="M92.0903 19.4675L81.4434 17.9156" stroke="#341D1A" stroke-linecap="round"/>
<path d="M93.9761 33.0633L83.6236 35.9943" stroke="#341D1A" stroke-linecap="round"/>
<ellipse cx="114.625" cy="28.1421" rx="5.20972" ry="5.2105" fill="#341D1A"/>
<path d="M360.661 34.4581L354.542 47.3742H345.931L352.276 34.4581H360.661Z" fill="#341D1A"/>
<path d="M357.017 10.1912C348.35 10.1912 341.365 17.0418 341.365 25.4412C341.365 33.8406 348.35 40.6912 357.017 40.6912C365.684 40.6911 372.669 33.8405 372.669 25.4412C372.669 17.0419 365.684 10.1914 357.017 10.1912Z" fill="#A5DFF7" stroke="#341D1A" stroke-width="2"/>
<path d="M372.39 7.9085L381.036 1.50461" stroke="#341D1A" stroke-linecap="round"/>
<path d="M378.001 20.4711L388.648 18.9193" stroke="#341D1A" stroke-linecap="round"/>
<path d="M376.108 34.0642L386.461 36.995" stroke="#341D1A" stroke-linecap="round"/>
<ellipse cx="354.019" cy="28.0684" rx="5.20937" ry="5.21015" fill="#341D1A"/>
<ellipse cx="123.992" cy="54.298" rx="22.2349" ry="2.95951" fill="#F7405E"/>
<ellipse cx="345.115" cy="54.298" rx="22.2349" ry="2.95951" fill="#F7405E"/>
<ellipse cx="237.283" cy="285.772" rx="185.328" ry="10.7282" fill="#B18800" fill-opacity="0.3"/>
<path d="M137.328 288.663V263.507H121.126V276.298C116.791 273.882 107.013 270.499 102.579 276.298C98.1444 282.097 103.147 286.957 106.203 288.663H137.328Z" fill="#341D1A"/>
<path d="M319.428 288.663V263.507H335.631V276.298C339.966 273.882 349.744 270.499 354.179 276.298C358.613 282.097 353.61 286.957 350.554 288.663H319.428Z" fill="#341D1A"/>
<rect x="467.148" y="52.3384" width="30.5561" height="30.5546" rx="15.2773" fill="#EE4AA6" stroke="#341D1A" stroke-width="2"/>
<rect x="470.821" y="53.6692" width="21.9617" height="22.777" rx="10.9809" fill="#FF73B8"/>
<rect x="473.653" y="55.8828" width="9.34073" height="9.3213" rx="4.66065" fill="#FFE5F2"/>
<path d="M19.6976 218.952C15.5858 225.34 9.24333 240.092 16.7676 247.998C26.1729 257.88 40.7814 246.747 48.5396 246.342C54.7462 246.019 58.8635 247.78 60.1463 248.701" stroke="#341D1A" stroke-width="2" stroke-linecap="round" stroke-linejoin="round"/>
<path d="M452.91 215.577C456.573 222.225 462 237.338 454.406 244.607C444.913 253.694 431.374 241.543 423.933 240.553C417.98 239.761 413.941 241.195 412.665 242.011" stroke="#341D1A" stroke-width="2" stroke-linecap="round" stroke-linejoin="round"/>
<defs>
<filter id="filter0_ii_1_983" x="19.3459" y="27.6164" width="435.875" height="234.508" filterUnits="userSpaceOnUse" color-interpolation-filters="sRGB">
<feFlood flood-opacity="0" result="BackgroundImageFix"/>
<feBlend mode="normal" in="SourceGraphic" in2="BackgroundImageFix" result="shape"/>
<feColorMatrix in="SourceAlpha" type="matrix" values="0 0 0 0 0 0 0 0 0 0 0 0 0 0 0 0 0 0 127 0" result="hardAlpha"/>
<feOffset dy="9"/>
<feComposite in2="hardAlpha" operator="arithmetic" k2="-1" k3="1"/>
<feColorMatrix type="matrix" values="0 0 0 0 0.117647 0 0 0 0 0.658824 0 0 0 0 0.866667 0 0 0 1 0"/>
<feBlend mode="normal" in2="shape" result="effect1_innerShadow_1_983"/>
<feColorMatrix in="SourceAlpha" type="matrix" values="0 0 0 0 0 0 0 0 0 0 0 0 0 0 0 0 0 0 127 0" result="hardAlpha"/>
<feOffset dy="-9"/>
<feComposite in2="hardAlpha" operator="arithmetic" k2="-1" k3="1"/>
<feColorMatrix type="matrix" values="0 0 0 0 0.117647 0 0 0 0 0.658824 0 0 0 0 0.866667 0 0 0 1 0"/>
<feBlend mode="normal" in2="effect1_innerShadow_1_983" result="effect2_innerShadow_1_983"/>
</filter>
<filter id="filter1_ii_1_983" x="48.7133" y="75.9147" width="85.9067" height="148.056" filterUnits="userSpaceOnUse" color-interpolation-filters="sRGB">
<feFlood flood-opacity="0" result="BackgroundImageFix"/>
<feBlend mode="normal" in="SourceGraphic" in2="BackgroundImageFix" result="shape"/>
<feColorMatrix in="SourceAlpha" type="matrix" values="0 0 0 0 0 0 0 0 0 0 0 0 0 0 0 0 0 0 127 0" result="hardAlpha"/>
<feOffset dy="-6"/>
<feComposite in2="hardAlpha" operator="arithmetic" k2="-1" k3="1"/>
<feColorMatrix type="matrix" values="0 0 0 0 0.225 0 0 0 0 0.21873 0 0 0 0 0.213188 0 0 0 1 0"/>
<feBlend mode="normal" in2="shape" result="effect1_innerShadow_1_983"/>
<feColorMatrix in="SourceAlpha" type="matrix" values="0 0 0 0 0 0 0 0 0 0 0 0 0 0 0 0 0 0 127 0" result="hardAlpha"/>
<feOffset dy="6"/>
<feComposite in2="hardAlpha" operator="arithmetic" k2="-1" k3="1"/>
<feColorMatrix type="matrix" values="0 0 0 0 0.870833 0 0 0 0 0.736792 0 0 0 0 0.618292 0 0 0 1 0"/>
<feBlend mode="normal" in2="effect1_innerShadow_1_983" result="effect2_innerShadow_1_983"/>
</filter>
<filter id="filter2_ii_1_983" x="146.373" y="75.9147" width="84.427" height="148.056" filterUnits="userSpaceOnUse" color-interpolation-filters="sRGB">
<feFlood flood-opacity="0" result="BackgroundImageFix"/>
<feBlend mode="normal" in="SourceGraphic" in2="BackgroundImageFix" result="shape"/>
<feColorMatrix in="SourceAlpha" type="matrix" values="0 0 0 0 0 0 0 0 0 0 0 0 0 0 0 0 0 0 127 0" result="hardAlpha"/>
<feOffset dy="-6"/>
<feComposite in2="hardAlpha" operator="arithmetic" k2="-1" k3="1"/>
<feColorMatrix type="matrix" values="0 0 0 0 0.225 0 0 0 0 0.21873 0 0 0 0 0.213188 0 0 0 1 0"/>
<feBlend mode="normal" in2="shape" result="effect1_innerShadow_1_983"/>
<feColorMatrix in="SourceAlpha" type="matrix" values="0 0 0 0 0 0 0 0 0 0 0 0 0 0 0 0 0 0 127 0" result="hardAlpha"/>
<feOffset dy="6"/>
<feComposite in2="hardAlpha" operator="arithmetic" k2="-1" k3="1"/>
<feColorMatrix type="matrix" values="0 0 0 0 0.870833 0 0 0 0 0.736792 0 0 0 0 0.618292 0 0 0 1 0"/>
<feBlend mode="normal" in2="effect1_innerShadow_1_983" result="effect2_innerShadow_1_983"/>
</filter>
<filter id="filter3_ii_1_983" x="242.558" y="75.9147" width="85.9067" height="148.056" filterUnits="userSpaceOnUse" color-interpolation-filters="sRGB">
<feFlood flood-opacity="0" result="BackgroundImageFix"/>
<feBlend mode="normal" in="SourceGraphic" in2="BackgroundImageFix" result="shape"/>
<feColorMatrix in="SourceAlpha" type="matrix" values="0 0 0 0 0 0 0 0 0 0 0 0 0 0 0 0 0 0 127 0" result="hardAlpha"/>
<feOffset dy="-6"/>
<feComposite in2="hardAlpha" operator="arithmetic" k2="-1" k3="1"/>
<feColorMatrix type="matrix" values="0 0 0 0 0.225 0 0 0 0 0.21873 0 0 0 0 0.213188 0 0 0 1 0"/>
<feBlend mode="normal" in2="shape" result="effect1_innerShadow_1_983"/>
<feColorMatrix in="SourceAlpha" type="matrix" values="0 0 0 0 0 0 0 0 0 0 0 0 0 0 0 0 0 0 127 0" result="hardAlpha"/>
<feOffset dy="6"/>
<feComposite in2="hardAlpha" operator="arithmetic" k2="-1" k3="1"/>
<feColorMatrix type="matrix" values="0 0 0 0 0.870833 0 0 0 0 0.736792 0 0 0 0 0.618292 0 0 0 1 0"/>
<feBlend mode="normal" in2="effect1_innerShadow_1_983" result="effect2_innerShadow_1_983"/>
</filter>
<filter id="filter4_ii_1_983" x="340.225" y="75.9147" width="85.9067" height="148.056" filterUnits="userSpaceOnUse" color-interpolation-filters="sRGB">
<feFlood flood-opacity="0" result="BackgroundImageFix"/>
<feBlend mode="normal" in="SourceGraphic" in2="BackgroundImageFix" result="shape"/>
<feColorMatrix in="SourceAlpha" type="matrix" values="0 0 0 0 0 0 0 0 0 0 0 0 0 0 0 0 0 0 127 0" result="hardAlpha"/>
<feOffset dy="-6"/>
<feComposite in2="hardAlpha" operator="arithmetic" k2="-1" k3="1"/>
<feColorMatrix type="matrix" values="0 0 0 0 0.225 0 0 0 0 0.21873 0 0 0 0 0.213188 0 0 0 1 0"/>
<feBlend mode="normal" in2="shape" result="effect1_innerShadow_1_983"/>
<feColorMatrix in="SourceAlpha" type="matrix" values="0 0 0 0 0 0 0 0 0 0 0 0 0 0 0 0 0 0 127 0" result="hardAlpha"/>
<feOffset dy="6"/>
<feComposite in2="hardAlpha" operator="arithmetic" k2="-1" k3="1"/>
<feColorMatrix type="matrix" values="0 0 0 0 0.870833 0 0 0 0 0.736792 0 0 0 0 0.618292 0 0 0 1 0"/>
<feBlend mode="normal" in2="effect1_innerShadow_1_983" result="effect2_innerShadow_1_983"/>
</filter>
<clipPath id="clip0_1_983">
<rect x="51.7133" y="78.9147" width="79.9068" height="142.056" rx="11" fill="white"/>
</clipPath>
<clipPath id="clip1_1_983">
<rect x="149.373" y="78.9147" width="78.427" height="142.056" rx="11" fill="white"/>
</clipPath>
<clipPath id="clip2_1_983">
<rect x="245.558" y="78.9147" width="79.9068" height="142.056" rx="11" fill="white"/>
</clipPath>
<clipPath id="clip3_1_983">
<rect x="343.225" y="78.9147" width="79.9068" height="142.056" rx="11" fill="white"/>
</clipPath>
</defs>
</svg>
