<svg width="411" height="117" viewBox="0 0 411 117" fill="none" xmlns="http://www.w3.org/2000/svg">
<path d="M203.029 0C203.489 0 203.946 0.0141278 204.397 0.0417838C204.814 0.0672594 205.231 0.0672552 205.647 0.0417779C206.099 0.0141208 206.555 0 207.015 0H362.991C371.153 5.80427e-05 377.259 4.93465 382.816 12.4941C385.862 16.6367 387.777 21.4759 389.093 26.4463L408.721 100.602C409.892 105.027 410.971 109.859 408.767 113.871C405.807 119.261 399.335 123 391.827 123H207.015C206.555 123 206.099 122.985 205.647 122.957C205.231 122.932 204.814 122.932 204.397 122.957C203.946 122.985 203.489 123 203.029 123H18.2166C10.7088 123 4.23655 119.261 1.27618 113.871C-0.927518 109.859 0.150703 105.027 1.32208 100.602L20.951 26.4463C22.2667 21.4758 24.1817 16.6367 27.2274 12.4941C32.7851 4.93462 38.8909 0 47.0526 0H203.029Z" fill="#341D1A"/>
</svg>
