<svg width="345" height="70" viewBox="0 0 345 70" fill="none" xmlns="http://www.w3.org/2000/svg">
<mask id="path-1-outside-1_58_1214" maskUnits="userSpaceOnUse" x="-0.996582" y="-0.999512" width="346" height="71" fill="black">
<rect fill="white" x="-0.996582" y="-0.999512" width="346" height="71"/>
<path d="M181.513 2.01221C188.566 1.99476 193.262 1.99735 196.242 2.01203C197.31 2.01728 204.104 2.11501 205.172 2.12107C207.427 2.13384 209.799 2.14777 212.292 2.16357C258.975 2.45963 313.03 10.3702 334.741 14.3771C335.058 14.4355 335.309 14.6399 335.446 14.931L342.244 29.3813C342.538 29.8746 342.183 30.5005 341.608 30.5005H333.484C333.314 30.5005 333.134 30.4384 332.972 30.494C332.04 30.8153 329.589 34.4774 325.374 47.6509C320.697 62.2663 310.396 66.6666 305.831 67.0396H42.7661C37.6705 66.6667 26.1745 62.2664 20.9546 47.6509C16.1696 34.253 13.4211 30.6935 12.422 30.4806C12.2704 30.4483 12.1122 30.5005 11.9572 30.5005H2.72443C2.1495 30.5005 1.80657 29.8597 2.12549 29.3813L9.72463 14.9072C9.8701 14.6301 10.1194 14.4399 10.4282 14.3888C34.6131 10.3856 95.0098 2.45991 147.164 2.16357C153.643 2.12676 159.387 2.09714 164.469 2.07373C165.306 2.01821 169.752 1.97973 181.513 2.01221Z"/>
</mask>
<g filter="url(#filter0_ii_58_1214)">
<path d="M181.513 2.01221C188.566 1.99476 193.262 1.99735 196.242 2.01203C197.31 2.01728 204.104 2.11501 205.172 2.12107C207.427 2.13384 209.799 2.14777 212.292 2.16357C258.975 2.45963 313.03 10.3702 334.741 14.3771C335.058 14.4355 335.309 14.6399 335.446 14.931L342.244 29.3813C342.538 29.8746 342.183 30.5005 341.608 30.5005H333.484C333.314 30.5005 333.134 30.4384 332.972 30.494C332.04 30.8153 329.589 34.4774 325.374 47.6509C320.697 62.2663 310.396 66.6666 305.831 67.0396H42.7661C37.6705 66.6667 26.1745 62.2664 20.9546 47.6509C16.1696 34.253 13.4211 30.6935 12.422 30.4806C12.2704 30.4483 12.1122 30.5005 11.9572 30.5005H2.72443C2.1495 30.5005 1.80657 29.8597 2.12549 29.3813L9.72463 14.9072C9.8701 14.6301 10.1194 14.4399 10.4282 14.3888C34.6131 10.3856 95.0098 2.45991 147.164 2.16357C153.643 2.12676 159.387 2.09714 164.469 2.07373C165.306 2.01821 169.752 1.97973 181.513 2.01221Z" fill="#FFA013"/>
</g>
<path d="M181.513 2.01221L181.508 4.01223L181.518 4.0122L181.513 2.01221ZM212.292 2.16357L212.304 0.163614L212.292 2.16357ZM342.244 29.3813L340.434 30.2327C340.462 30.292 340.493 30.35 340.526 30.4064L342.244 29.3813ZM325.374 47.6509L323.469 47.0413V47.0413L325.374 47.6509ZM305.831 67.0396V69.0396C305.885 69.0396 305.939 69.0373 305.993 69.0329L305.831 67.0396ZM42.7661 67.0396L42.6201 69.0342C42.6687 69.0378 42.7174 69.0396 42.7661 69.0396V67.0396ZM20.9546 47.6509L22.8381 46.9782L20.9546 47.6509ZM2.12549 29.3813L3.78959 30.4907C3.82826 30.4327 3.86387 30.3728 3.89627 30.311L2.12549 29.3813ZM147.164 2.16357L147.152 0.163607L147.164 2.16357ZM164.469 2.07373L164.478 4.07371C164.52 4.07352 164.561 4.07206 164.602 4.06934L164.469 2.07373ZM9.72463 14.9072L7.95384 13.9775L9.72463 14.9072ZM334.741 14.3771L334.378 16.3439L334.741 14.3771ZM335.446 14.931L333.636 15.7824L335.446 14.931ZM12.422 30.4806L12.8388 28.5245L12.422 30.4806ZM332.972 30.494L333.624 32.3848L332.972 30.494ZM181.513 2.01221L181.518 4.0122C188.569 3.99475 193.259 3.99736 196.233 4.012L196.242 2.01203L196.252 0.0120493C193.264 -0.00266409 188.562 -0.00524092 181.508 0.0122131L181.513 2.01221ZM205.172 2.12107L205.161 4.12103C207.416 4.13381 209.787 4.14773 212.279 4.16353L212.292 2.16357L212.304 0.163614C209.811 0.147803 207.439 0.133878 205.184 0.121099L205.172 2.12107ZM212.292 2.16357L212.279 4.16353C258.799 4.45856 312.727 12.348 334.378 16.3439L334.741 14.3771L335.104 12.4103C313.333 8.39238 259.151 0.460709 212.304 0.163614L212.292 2.16357ZM335.446 14.931L333.636 15.7824L340.434 30.2327L342.244 29.3813L344.053 28.53L337.256 14.0797L335.446 14.931ZM341.608 30.5005V28.5005H333.484V30.5005V32.5005H341.608V30.5005ZM332.972 30.494L332.32 28.6033C331.818 28.7766 331.433 29.086 331.172 29.3349C330.889 29.6041 330.62 29.9297 330.36 30.2913C329.841 31.0147 329.258 32.0267 328.603 33.3834C327.29 36.1044 325.59 40.4117 323.469 47.0413L325.374 47.6509L327.278 48.2604C329.372 41.7165 331.006 37.606 332.205 35.1224C332.807 33.8767 333.275 33.0896 333.609 32.6243C333.776 32.3916 333.884 32.2755 333.931 32.2315C333.998 32.1671 333.894 32.2918 333.624 32.3848L332.972 30.494ZM325.374 47.6509L323.469 47.0413C319.037 60.8904 309.421 64.7396 305.668 65.0462L305.831 67.0396L305.993 69.0329C311.372 68.5936 322.356 63.6422 327.278 48.2604L325.374 47.6509ZM305.831 67.0396V65.0396H42.7661V67.0396V69.0396H305.831V67.0396ZM42.7661 67.0396L42.9121 65.0449C38.5082 64.7226 27.76 60.7596 22.8381 46.9782L20.9546 47.6509L19.0711 48.3236C24.5889 63.7733 36.8328 68.6107 42.6201 69.0342L42.7661 67.0396ZM20.9546 47.6509L22.8381 46.9782C20.4288 40.2322 18.5053 35.885 17.0253 33.1654C16.2875 31.8097 15.6313 30.8048 15.0463 30.0961C14.7538 29.7417 14.4484 29.4237 14.1274 29.1673C13.8283 28.9284 13.3918 28.6423 12.8388 28.5245L12.422 30.4806L12.0051 32.4367C11.7019 32.372 11.5698 32.2438 11.631 32.2927C11.6703 32.324 11.7809 32.4237 11.9614 32.6423C12.3222 33.0795 12.8395 33.8418 13.5119 35.0774C14.8521 37.5402 16.6954 41.6716 19.0711 48.3236L20.9546 47.6509ZM11.9572 30.5005V28.5005H2.72443V30.5005V32.5005H11.9572V30.5005ZM2.12549 29.3813L3.89627 30.311L11.4954 15.8368L9.72463 14.9072L7.95384 13.9775L0.354702 28.4517L2.12549 29.3813ZM10.4282 14.3888L10.7548 16.3619C34.8852 12.3678 95.1674 4.45904 147.175 4.16354L147.164 2.16357L147.152 0.163607C94.8522 0.460771 34.341 8.40343 10.1016 12.4156L10.4282 14.3888ZM147.164 2.16357L147.175 4.16354C153.654 4.12673 159.397 4.09711 164.478 4.07371L164.469 2.07373L164.46 0.0737517C159.377 0.0971637 153.633 0.126786 147.152 0.163607L147.164 2.16357ZM164.469 2.07373L164.602 4.06934C165.349 4.01977 169.692 3.97957 181.508 4.0122L181.513 2.01221L181.519 0.0122147C169.813 -0.0201087 165.263 0.0166397 164.337 0.0781207L164.469 2.07373ZM342.244 29.3813L340.526 30.4064C340.025 29.5665 340.63 28.5005 341.608 28.5005V30.5005V32.5005C343.735 32.5005 345.051 30.1827 343.961 28.3563L342.244 29.3813ZM9.72463 14.9072L11.4954 15.8368C11.3688 16.078 11.104 16.3041 10.7548 16.3619L10.4282 14.3888L10.1016 12.4156C9.13485 12.5757 8.37142 13.1821 7.95384 13.9775L9.72463 14.9072ZM334.741 14.3771L334.378 16.3439C334.021 16.278 333.756 16.037 333.636 15.7824L335.446 14.931L337.256 14.0797C336.862 13.2428 336.094 12.593 335.104 12.4103L334.741 14.3771ZM12.422 30.4806L12.8388 28.5245C12.427 28.4367 12.0769 28.4783 11.9609 28.4917C11.9272 28.4956 11.8949 28.4998 11.879 28.5018C11.8585 28.5044 11.8529 28.5051 11.8502 28.5054C11.8438 28.5061 11.8885 28.5005 11.9572 28.5005V30.5005V32.5005C12.0323 32.5005 12.0993 32.4973 12.1554 32.4934C12.2112 32.4895 12.2601 32.4845 12.2976 32.4803C12.3339 32.4762 12.3673 32.4719 12.3858 32.4696C12.4089 32.4666 12.4156 32.4658 12.4209 32.4652C12.4245 32.4647 12.4164 32.4657 12.4015 32.4669C12.3863 32.468 12.36 32.4697 12.3255 32.47C12.2568 32.4706 12.1439 32.4662 12.0051 32.4367L12.422 30.4806ZM333.484 30.5005V28.5005C333.555 28.5005 333.601 28.5067 333.582 28.5046C333.571 28.5033 333.564 28.5025 333.533 28.4986C333.508 28.4956 333.468 28.4907 333.422 28.4861C333.267 28.4707 332.824 28.4296 332.32 28.6033L332.972 30.494L333.624 32.3848C333.446 32.4463 333.293 32.4645 333.191 32.4693C333.095 32.4739 333.03 32.4669 333.028 32.4667C333.025 32.4664 333.028 32.4667 333.047 32.4689C333.059 32.4704 333.096 32.475 333.128 32.4788C333.165 32.4829 333.215 32.4883 333.273 32.4925C333.331 32.4968 333.403 32.5005 333.484 32.5005V30.5005ZM2.72443 30.5005V28.5005C3.74689 28.5005 4.35674 29.64 3.78959 30.4907L2.12549 29.3813L0.461388 28.2719C-0.743602 30.0794 0.552107 32.5005 2.72443 32.5005V30.5005ZM196.242 2.01203L196.233 4.012C196.756 4.01458 198.708 4.04013 200.681 4.06608C202.64 4.09183 204.617 4.11795 205.161 4.12103L205.172 2.12107L205.184 0.121099C204.66 0.118129 202.706 0.0923593 200.734 0.0664213C198.776 0.0406711 196.797 0.0147319 196.252 0.0120493L196.242 2.01203Z" fill="#341D1A" mask="url(#path-1-outside-1_58_1214)"/>
<defs>
<filter id="filter0_ii_58_1214" x="0" y="0" width="344.352" height="69.0396" filterUnits="userSpaceOnUse" color-interpolation-filters="sRGB">
<feFlood flood-opacity="0" result="BackgroundImageFix"/>
<feBlend mode="normal" in="SourceGraphic" in2="BackgroundImageFix" result="shape"/>
<feColorMatrix in="SourceAlpha" type="matrix" values="0 0 0 0 0 0 0 0 0 0 0 0 0 0 0 0 0 0 127 0" result="hardAlpha"/>
<feOffset dy="5"/>
<feComposite in2="hardAlpha" operator="arithmetic" k2="-1" k3="1"/>
<feColorMatrix type="matrix" values="0 0 0 0 0.686275 0 0 0 0 0.588235 0 0 0 0 0.223529 0 0 0 1 0"/>
<feBlend mode="normal" in2="shape" result="effect1_innerShadow_58_1214"/>
<feColorMatrix in="SourceAlpha" type="matrix" values="0 0 0 0 0 0 0 0 0 0 0 0 0 0 0 0 0 0 127 0" result="hardAlpha"/>
<feOffset dy="-6"/>
<feComposite in2="hardAlpha" operator="arithmetic" k2="-1" k3="1"/>
<feColorMatrix type="matrix" values="0 0 0 0 0 0 0 0 0 0 0 0 0 0 0 0 0 0 0.25 0"/>
<feBlend mode="normal" in2="effect1_innerShadow_58_1214" result="effect2_innerShadow_58_1214"/>
</filter>
</defs>
</svg>
