<svg width="56" height="66" viewBox="0 0 56 66" fill="none" xmlns="http://www.w3.org/2000/svg">
<path d="M24.4902 1.16974C28.8524 0.470489 33.1348 2.04993 36.6016 3.68439C37.476 4.09666 38.3094 4.51808 39.085 4.91388C39.8654 5.31219 40.5789 5.67972 41.2363 5.99786C41.8946 6.31643 42.4689 6.571 42.9629 6.74493C43.4672 6.92251 43.8237 6.992 44.0625 6.992C45.1137 6.9919 45.6365 6.65162 45.9062 6.35138C46.2048 6.01899 46.2978 5.61937 46.2979 5.39923V4.50275L47.1885 4.40509C48.2917 4.28451 49.9817 4.34974 51.4961 4.97736C53.0568 5.62424 54.4929 6.90919 54.7617 9.17072C54.9323 10.606 54.3437 12.4141 53.4932 14.3074C52.619 16.2533 51.3648 18.5015 49.9834 20.8914C47.1975 25.7112 43.8748 31.1446 41.75 36.2537C40.1011 40.2185 39.5622 45.4624 39.5889 50.4842C39.6155 55.4861 40.202 60.1576 40.7305 62.9109L40.9639 64.1297L39.7236 64.0994L13.2998 63.451L12.1797 63.4236L12.334 62.3133C12.7003 59.6713 14.076 52.1075 16.6748 42.7342C18.0247 37.8654 21.1847 33.0894 24.5176 29.1317C26.699 26.5413 28.9838 24.2678 30.9473 22.5086C29.2611 22.5871 27.1957 22.4695 24.9541 21.9305C22.2588 21.2824 21.0804 20.9376 19.8232 20.3152C19.2134 20.0133 18.5915 19.6488 17.7842 19.1785C16.9691 18.7037 15.9336 18.1014 14.4629 17.2977C13.5035 16.7734 12.6878 16.7453 11.9658 16.9774C11.2056 17.2218 10.4541 17.7879 9.74023 18.6141C8.30561 20.2744 7.25235 22.7178 6.73437 24.4822L6.52344 25.2H1L1 4.39923H7.31445V8.71857C9.0507 7.60456 11.3616 6.24271 13.8867 4.9754C17.2652 3.27983 21.1034 1.71268 24.4902 1.16974Z" fill="#9C1D28" stroke="#341D1A" stroke-width="2"/>
</svg>
