<svg width="26" height="14" viewBox="0 0 26 14" fill="none" xmlns="http://www.w3.org/2000/svg">
<path fill-rule="evenodd" clip-rule="evenodd" d="M1.73964 0.680499C0.569162 0.716579 -0.284938 1.81155 0.0888615 2.92132C0.133951 3.05518 0.180373 3.18842 0.228122 3.32102C0.979236 5.40674 2.04398 7.2901 3.36156 8.86355C4.67914 10.437 6.22376 11.6697 7.90722 12.4914C9.59068 13.313 11.38 13.7075 13.1731 13.6522C14.9661 13.5969 16.7277 13.093 18.3574 12.1692C19.9871 11.2455 21.4528 9.91995 22.671 8.26833C23.8891 6.61671 24.8359 4.67135 25.4571 2.54332C25.4966 2.40804 25.5347 2.27219 25.5715 2.1358C25.8762 1.00512 24.9563 -0.0351671 23.7858 0.000913463C22.9145 0.0277722 22.1885 0.657098 21.9471 1.49473C21.9418 1.51307 21.9365 1.5314 21.9311 1.54971C21.4178 3.30815 20.6493 4.86616 19.7027 6.14963C18.7566 7.43232 17.6664 8.3964 16.5286 9.04139C15.3967 9.683 14.2218 10.008 13.0618 10.0438C11.9019 10.0795 10.7092 9.8275 9.5399 9.25682C8.36449 8.68314 7.21702 7.78803 6.19375 6.56605C5.16986 5.34332 4.30687 3.8356 3.68621 2.11212C3.67975 2.09417 3.67331 2.07621 3.66691 2.05823C3.37436 1.23705 2.61095 0.65364 1.73964 0.680499Z" fill="#341D1A"/>
</svg>
