<svg width="107" height="108" viewBox="0 0 107 108" fill="none" xmlns="http://www.w3.org/2000/svg">
<path d="M75.6899 34.8755C75.9429 35.2027 76.1888 35.5446 76.4207 35.9024L76.6318 36.2389C80.6521 42.8303 82.1734 49.6794 80.1988 56.554L79.9966 57.2193C79.9146 57.476 79.8479 57.7169 79.7876 57.9312C79.7284 58.1419 79.6739 58.325 79.6143 58.4957L77.3999 63.3277C76.9315 64.1271 76.5133 64.8191 75.999 65.5612L75.9984 65.5624C75.0864 66.8847 73.913 68.3911 72.6948 69.6012L72.6939 69.6014C67.3382 74.925 60.4056 78.7949 52.4086 79.4876L51.6321 79.5443C47.803 79.7698 44.1348 79.2593 40.8585 78.0791L40.8595 78.0788C37.9028 77.0105 36.1209 75.8428 34.8654 74.8086C34.2329 74.2876 33.731 73.7982 33.2622 73.3517C32.8304 72.9404 32.4152 72.554 31.9675 72.2448C31.7412 71.8721 31.445 71.4861 31.153 71.118C30.8233 70.7025 30.4971 70.3018 30.2282 69.9052L30.2279 69.9043C29.943 69.4857 29.6722 69.0443 29.4141 68.5832C31.2753 70.6711 33.4591 72.1862 35.4868 73.1491L35.487 73.15C40.7429 75.6485 48.0702 76.4301 54.6907 74.5171C62.1057 72.3744 67.9145 68.8785 72.7327 63.3935C76.5649 59.0339 77.8365 51.9146 77.9026 45.2521C77.948 40.7969 77.1151 37.4374 75.6899 34.8755Z" fill="#FFA013" stroke="#530D11"/>
<path d="M72.7408 31.4799C77.0207 34.1778 79.0055 38.7117 78.9163 44.2084C78.8269 49.7185 76.648 56.1649 72.62 62.555C68.6466 68.8585 61.1473 73.4153 53.2143 75.0911C45.2801 76.767 37.0276 75.5397 31.507 70.4397C22.5166 62.1336 23.8611 47.4666 32.6575 38.5753C46.5109 24.5727 63.5395 25.6798 72.7408 31.4799Z" fill="#FFA013" stroke="#530D11"/>
<path d="M54.8008 27.2441C58.417 26.8227 62.039 27.0459 65.4538 28.0372L40.0305 74.2312C38.4878 73.8407 37.0334 73.3249 35.7146 72.6979C34.2447 72.0001 32.6934 71.0046 31.2493 69.7054L54.8008 27.2441ZM44.8587 30.0122C40.2938 38.2426 32.6947 51.8744 26.5293 62.9207C25.6892 60.7492 25.225 58.2465 25.3469 55.402C25.8234 44.3109 34.3769 34.6694 44.8587 30.0122Z" fill="#FFBD5C"/>
</svg>
