<svg width="54" height="65" viewBox="0 0 54 65" fill="none" xmlns="http://www.w3.org/2000/svg">
<path d="M46.8307 19.8731C43.121 21.3879 39.9591 19.7055 38.6927 18.5571C38.5913 18.4652 38.5061 18.3589 38.4306 18.2447L37.5971 16.984C37.3896 16.6701 37.2584 16.2969 37.3771 15.9398C37.7297 14.8789 39.1187 13.1787 42.8708 11.9717C46.8743 10.6838 50.0258 12.7537 51.4968 14.3546C51.8314 14.7187 51.9675 15.2267 51.7783 15.6837C51.2981 16.8433 49.9242 18.6099 46.8307 19.8731Z" fill="#A0EBB5"/>
<path d="M10.0525 24.6916C13.783 19.0413 20.1835 14.9248 27.5678 15.4468L27.5669 15.4471C29.0361 15.5509 30.6375 15.9726 32.0227 16.5561L32.0236 16.5558C32.2235 16.6403 32.3776 16.7197 32.5003 16.7827C32.6643 16.8669 32.7482 16.9075 32.8413 16.9337C32.8952 16.9488 32.9612 16.9608 33.0555 16.9646C33.207 16.7956 33.3071 16.636 33.4129 16.4617C33.5279 16.2724 33.6701 16.0322 33.9065 15.817C34.1488 15.5965 34.4613 15.4241 34.8991 15.286L34.9 15.2858C35.602 15.0658 36.7578 15.0977 37.5781 15.996C38.2628 16.714 38.4431 17.5151 38.3253 18.29C38.2646 18.6974 38.1568 19.0043 37.998 19.2588C37.8435 19.5062 37.6562 19.6787 37.509 19.8168C37.3727 19.9447 37.2475 20.0619 37.1252 20.2248C37.1544 20.2849 37.1956 20.3612 37.2519 20.4536C37.4006 20.6976 37.6106 20.9951 37.8383 21.3174C38.1034 21.6926 38.3959 22.1051 38.5912 22.4495C39.106 23.3584 39.4665 24.203 39.7843 25.1712L39.7846 25.1721C40.3646 26.9486 40.643 29.1744 40.5459 30.8689C40.0419 39.7031 33.706 47.8088 25.3006 49.9991L25.2996 49.9994C19.9294 51.3972 16.6418 50.0481 14.9438 49.3472C14.6229 49.2148 14.392 49.1195 14.2138 49.0661C14.1385 49.0436 14.0905 49.0367 14.0641 49.0329C13.9392 49.1213 13.8368 49.2637 13.6725 49.5233C13.5095 49.7811 13.283 50.148 12.8906 50.4165C12.4819 50.6961 11.9501 50.8353 11.2243 50.7914C9.68799 50.6991 8.66104 49.3002 8.80277 48.0201C8.68693 47.6161 8.83002 47.2377 8.98712 46.9674C9.16506 46.6613 9.42895 46.3718 9.62599 46.1529C9.74408 46.0218 9.83878 45.9153 9.91099 45.8222C9.93881 45.7863 9.95596 45.7574 9.96896 45.7374C9.9482 45.6803 9.91031 45.5992 9.84763 45.4919C9.7184 45.2705 9.52922 45.0046 9.30729 44.693C9.10906 44.4146 8.888 44.1046 8.69035 43.7901L8.50239 43.4753C5.19899 37.6143 6.32591 30.336 10.0525 24.6916Z" fill="#F2B645" stroke="#341D1A"/>
<path fill-rule="evenodd" clip-rule="evenodd" d="M9.47187 47.9344C10.1112 48.195 11.574 47.5569 12.1323 47.1699C13.9333 45.9203 12.0628 45.5698 17.5732 45.0476C18.5544 44.9546 19.4873 44.8574 20.4295 44.7228C22.4571 44.4339 24.6534 43.9043 26.6236 42.9385C27.339 42.5877 27.9876 42.2902 28.6535 41.7861C29.6125 41.0581 30.4314 40.5179 31.3145 39.6051C33.7526 37.0869 35.534 33.9254 36.3052 30.6993C36.5644 29.6141 36.6705 28.72 36.7393 27.7477C37.0703 23.1863 35.0556 20.7309 35.4625 19.3366C35.7902 18.2132 36.4611 18.4473 37.3774 16.3096C36.7232 15.5856 35.7854 15.5513 35.21 15.7316C33.9874 16.1173 34.2059 16.6923 33.4318 17.4304C32.7527 17.469 32.6356 17.258 31.9892 16.9848C30.6462 16.4191 29.0989 16.0138 27.6926 15.9144C13.3592 14.9011 2.72413 31.8891 9.09835 43.1982C9.67706 44.2272 10.723 45.3444 10.639 45.7978C10.5076 46.2889 9.13709 47.1905 9.47187 47.9344Z" fill="#FFD954"/>
<path fill-rule="evenodd" clip-rule="evenodd" d="M9.47204 47.9351C9.28642 48.9586 10.1221 50.1832 11.415 50.2606C13.3747 50.3792 13.203 48.9799 14.0408 48.5237C14.8516 48.1701 18.147 51.355 25.3345 49.484C33.5172 47.3519 39.7145 39.4403 40.2068 30.809C40.3004 29.1774 40.031 27.0137 39.47 25.2955C39.1614 24.3553 38.8132 23.542 38.3163 22.6647C37.8362 21.8181 36.6817 20.4621 36.7483 20.0949C37.2717 19.2524 37.8229 19.3217 37.9922 18.1852C38.0889 17.5524 37.949 16.9094 37.3776 16.3103C36.4613 18.448 35.7904 18.2139 35.4627 19.3372C35.0558 20.7316 37.0705 23.1869 36.7395 27.7483C36.6707 28.7206 36.5646 29.6147 36.3054 30.6999C35.5341 33.926 33.7528 37.0875 31.3147 39.6057C30.4316 40.5186 29.6127 41.0588 28.6537 41.7867C27.9877 42.2909 27.3392 42.5883 26.6238 42.9391C24.6536 43.905 22.4573 44.4345 20.4296 44.7234C19.4875 44.858 18.5546 44.9553 17.5734 45.0483C12.063 45.5704 13.9334 45.9209 12.1324 47.1706C11.5741 47.5576 10.1114 48.1957 9.47204 47.9351Z" fill="#F2B645"/>
<path fill-rule="evenodd" clip-rule="evenodd" d="M19.365 20.6054C18.8816 21.1313 18.664 21.1018 18.2834 21.8823C18.2668 22.1653 18.3176 22.175 18.2939 22.5144C18.209 23.773 19.3969 23.5462 19.8554 23.7482C20.5915 23.3627 20.714 23.4334 21.0667 23.0233C21.4501 22.5792 21.5651 22.0614 21.5453 21.6217C21.4869 20.3827 20.0431 20.1805 19.365 20.6054Z" fill="#F4F4F4"/>
<path fill-rule="evenodd" clip-rule="evenodd" d="M19.1974 20.5136L19.3644 20.6062C20.0426 20.1812 21.4864 20.3834 21.5447 21.6224C21.5646 22.0622 21.4496 22.58 21.0662 23.024C20.7135 23.4341 20.5909 23.3635 19.8548 23.7489C18.8449 24.0804 18.5106 23.5472 18.0865 22.7561C18.0439 23.0114 17.9624 23.0185 18.1739 23.305C18.3292 23.5156 18.5643 23.635 18.7746 23.7725C19.2695 24.0967 19.3577 24.0812 19.8198 23.9862C21.7185 23.5949 22.214 21.2903 21.3367 20.708C20.7876 20.3438 19.9525 19.885 19.1974 20.5136Z" fill="#F2EA77"/>
<path fill-rule="evenodd" clip-rule="evenodd" d="M18.086 22.754C18.5101 23.5452 18.8444 24.0784 19.8543 23.7469C19.3958 23.545 18.2079 23.7718 18.2928 22.5131C18.3166 22.1738 18.2658 22.1641 18.2824 21.881C18.663 21.1005 18.8805 21.1301 19.3639 20.6042L19.1968 20.5116C19.0274 20.7274 18.8972 20.7437 18.7232 20.9006C18.532 21.0748 18.3567 21.3409 18.2343 21.5668C17.9622 22.0656 17.9049 22.3608 18.086 22.754Z" fill="#F5F3B7"/>
<path fill-rule="evenodd" clip-rule="evenodd" d="M14.6804 39.844C15.3656 40.1312 14.8069 40.2324 15.5929 39.8829C16.1692 39.6336 17.7002 37.9243 18.7887 37.6769C18.5034 38.2583 18.0747 38.9632 17.564 39.6889C15.804 42.1439 16.2168 41.0897 16.6161 41.988C16.6981 41.9672 16.7519 41.8717 16.8404 41.903C16.9362 41.9419 17.0048 41.8466 17.0574 41.8104L18.1779 40.6282C18.9707 39.4993 21.1612 36.6438 20.9187 35.2881C20.0845 35.0278 20.2762 35.1056 19.4113 35.706L15.9942 38.242C15.2338 38.8147 14.8203 39.0966 14.6804 39.844Z" fill="#7E252E"/>
<path fill-rule="evenodd" clip-rule="evenodd" d="M26.7539 30.0273C27.2292 30.0212 33.1381 27.2412 32.925 25.9008C31.6188 25.4686 30.7549 27.2347 28.9223 27.5724C29.0832 26.8922 29.2903 26.5322 29.6369 25.8481C30.1917 24.7446 30.1693 24.7516 29.8765 24.1151C29.4217 24.2182 29.8612 23.7362 29.1118 24.5169C29.1118 24.5169 28.7204 25.2151 28.7201 25.2299L27.0955 28.4002C26.5513 29.3331 26.4418 29.2346 26.7539 30.0273Z" fill="#7E252E"/>
<path fill-rule="evenodd" clip-rule="evenodd" d="M27.6985 38.8723L26.629 38.0806C27.8953 36.6411 28.2249 36.0755 29.7587 35.8363L27.134 33.2045C26.9323 34.4927 25.5878 35.3367 24.5991 35.8087C24.6122 35.0961 24.0531 36.0288 24.8456 34.9148L27.0695 33.0771C25.9494 33.4278 25.701 34.4256 24.2897 34.8675C23.6467 35.5165 23.7998 35.2669 23.5876 35.9089C24.4766 35.6059 23.5172 35.2914 24.663 36.3741C24.904 36.5938 25.4192 37.2492 25.74 37.5669C26.4544 38.2927 26.7431 38.7435 27.6985 38.8723Z" fill="#F5625C"/>
<path fill-rule="evenodd" clip-rule="evenodd" d="M27.0698 33.0768L27.1343 33.2042L29.759 35.836C31.0887 38.2287 29.664 40.2147 27.6988 38.872C26.7434 38.7432 26.4546 38.2924 25.7403 37.5666C25.4194 37.2489 24.9043 36.5935 24.6633 36.3738C23.5175 35.2911 24.4769 35.6056 23.5878 35.9086C24.6212 38.2663 28.3285 40.9773 30.2222 39.3266C32.5231 37.3418 28.4189 31.572 26.6253 32.6157L24.2899 34.8672C25.7013 34.4253 25.9497 33.4275 27.0698 33.0768Z" fill="#7E252E"/>
<path fill-rule="evenodd" clip-rule="evenodd" d="M27.6986 38.8723C29.6638 40.215 31.0885 38.229 29.7588 35.8362C28.2249 36.0754 27.8953 36.6411 26.6291 38.0806L27.6986 38.8723Z" fill="#FC867D"/>
<path fill-rule="evenodd" clip-rule="evenodd" d="M12.1844 36.2715C13.3906 35.6774 13.961 34.5296 15.5545 33.8683C16.7367 33.3702 18.2846 33.5841 18.9319 32.6976C17.2722 30.8853 10.5692 34.8684 12.1844 36.2715Z" fill="#7E252E"/>
<path fill-rule="evenodd" clip-rule="evenodd" d="M23.3999 28.7403C24.2806 28.0808 23.8838 26.6406 24.3379 25.357C25.3792 22.4137 26.6101 22.9039 25.5172 21.7703C24.0581 22.3895 21.735 27.6184 23.3999 28.7403Z" fill="#7E252E"/>
<path fill-rule="evenodd" clip-rule="evenodd" d="M27.1343 33.2042L27.0698 33.0768L24.8459 34.9145C24.0533 36.0286 24.6124 35.0959 24.5994 35.8084C25.588 35.3365 26.9325 34.4924 27.1343 33.2042Z" fill="#F4D7D8"/>
<path d="M37.4587 15.7266C37.8601 15.7673 38.2543 15.8646 38.6054 16.0151C39.9668 16.5983 41.8742 16.9716 44.3366 16.6227C47.5777 16.1633 50.1411 15.377 51.7512 14.7462C51.8823 15.042 51.9066 15.3737 51.7785 15.6833C51.2983 16.843 49.9241 18.6098 46.8307 19.873C43.121 21.3878 39.9588 19.706 38.6924 18.5576C38.591 18.4657 38.5063 18.3587 38.4308 18.2446L37.5974 16.9843C37.39 16.6705 37.2583 16.2971 37.3768 15.9401C37.3996 15.8716 37.427 15.8002 37.4587 15.7266Z" fill="#6EAF80"/>
<path fill-rule="evenodd" clip-rule="evenodd" d="M42.7176 11.4957C46.9783 10.1251 50.3216 12.3367 51.865 14.0163C52.3045 14.4946 52.5179 15.2044 52.2402 15.875C51.7017 17.1756 50.2179 19.0301 47.0197 20.336C43.0741 21.9472 39.7129 20.1573 38.3568 18.9276C38.2167 18.8005 38.1054 18.6594 38.0135 18.5205L38.4306 18.2447L38.0135 18.5205L37.18 17.2598C36.9384 16.8944 36.7126 16.3539 36.9026 15.7822L37.3694 15.9373L36.9026 15.7822C37.3251 14.5109 38.8848 12.7287 42.7176 11.4957ZM51.1286 14.6929C49.73 13.1708 46.7702 11.2425 43.0239 12.4477C39.3525 13.6287 38.1343 15.2469 37.8516 16.0976C37.8043 16.2399 37.8407 16.446 38.0141 16.7083L38.8477 17.969C38.9068 18.0584 38.9659 18.13 39.0286 18.1868L38.6976 18.5518L39.0286 18.1868C40.2052 19.2538 43.1678 20.8287 46.6416 19.4102C49.6304 18.1898 50.8945 16.5111 51.3163 15.4924C51.417 15.2491 51.3584 14.9429 51.1286 14.6929Z" fill="#341D1A"/>
</svg>
