<svg width="19" height="24" viewBox="0 0 19 24" fill="none" xmlns="http://www.w3.org/2000/svg">
<path d="M11.8868 16.4752L3.52278 15.324C3.13513 15.2584 2.8715 15.1314 2.73189 14.9428C2.61209 14.7597 2.57508 14.4716 2.62084 14.0784L3.09305 9.9797C3.13881 9.58651 3.26866 9.31297 3.48259 9.15908C3.71635 9.01072 4.02705 8.96934 4.4147 9.03492L10.5635 9.85558C10.8718 9.89901 11.1049 9.86797 11.2625 9.76246C11.4202 9.65695 11.5406 9.45555 11.6237 9.15825C11.7012 8.88078 11.69 8.65329 11.59 8.47578C11.49 8.29828 11.3112 8.17353 11.0536 8.10154L2.84824 5.80882C2.47167 5.7036 2.21634 5.54678 2.08227 5.33838C1.97356 5.1157 1.97181 4.81608 2.07703 4.4395L3.08217 0.842234C3.1874 0.465661 3.34144 0.220247 3.5443 0.105993C3.77252 -0.0225418 4.07491 -0.034198 4.45149 0.0710235L14.0541 2.75417C15.9766 3.29136 17.3555 4.16809 18.1909 5.38439C19.0317 6.58086 19.2168 8.02143 18.7461 9.70611L17.8738 12.8277C17.4087 14.4926 16.6602 15.5654 15.6284 16.0463C14.5966 16.5273 13.3494 16.6702 11.8868 16.4752ZM6.28932 23.661L0.848823 22.1408C0.47225 22.0356 0.216927 21.8788 0.0828539 21.6704C-0.0258616 21.4477 -0.0276083 21.1481 0.0776136 20.7715L1.16583 16.8769C1.27105 16.5004 1.42509 16.255 1.62795 16.1407C1.85617 16.0122 2.15857 16.0005 2.53514 16.1057L7.97563 17.6259C8.3522 17.7311 8.59485 17.8951 8.70357 18.1178C8.83764 18.3262 8.85206 18.6186 8.74684 18.9952L7.65863 22.8898C7.55341 23.2664 7.38669 23.5189 7.15847 23.6474C6.95561 23.7617 6.66589 23.7662 6.28932 23.661Z" fill="#341D1A"/>
</svg>
